<svg transform="scale(1)" version="1.1" id="Layer_1" xmlns="http://www.w3.org/2000/svg" xmlns:xlink="http://www.w3.org/1999/xlink" x="0px" y="0px" viewBox="0 0 500 500" xml:space="preserve" class="show_show__wrapper__graphic__5Waiy "><title>React</title><style type="text/css">
	.st0{fill:#B4CDEC;}
	.st1{opacity:0.41;fill:url(#SVGID_1_);enable-background:new    ;}
	.st2{opacity:0.41;fill:url(#SVGID_00000011728568938387054760000013048793103337680516_);enable-background:new    ;}
	.st3{fill:#3b82f6;}
	.st4{fill:#a855f7;}
	.st5{fill:#F2F2F2;}
	.st6{fill:#FC9C54;}
	.st7{fill:#FC9C54;}
	.st8{fill:#3b82f6;}
	.st9{fill:#653200;}
	.st10{fill:#FFD8BD;}
	.st11{fill:#FFD8BD;}
</style><path class="st0" id="Base" d="M61.8,376.1c27.4,16.5,94.7,55.5,126.1,73.7c10.3,5.9,22.9,5.9,33.2-0.1l217.5-127.1
	c4-2.4,5.4-7.5,3-11.6c-0.7-1.3-1.8-2.3-3-3l-136.3-80c-2.6-1.5-5.9-1.5-8.5,0L61.9,361.5c-4.1,2.3-5.4,7.5-3.1,11.6
	C59.5,374.3,60.5,375.4,61.8,376.1z"></path><g id="Shadow"><linearGradient id="SVGID_1_" gradientUnits="userSpaceOnUse" x1="268.8101" y1="122.8198" x2="331.9301" y2="162.1298" gradientTransform="matrix(1 0 0 -1 0 502)"><stop offset="0" style="stop-color: rgb(6, 87, 122); stop-opacity: 0;"></stop><stop offset="0.99" style="stop-color: rgb(6, 87, 122);"></stop></linearGradient><path class="st1" d="M283.9,391.2c22-13.2,61.8-36.3,67-41.1l-1.3-4.7l-29.8-17.7l-72.5,42.1C257.6,378.5,272.7,383.6,283.9,391.2z
		"></path><linearGradient id="SVGID_00000127744715935196709420000001259089669320693388_" gradientUnits="userSpaceOnUse" x1="88.3589" y1="122.3217" x2="180.1789" y2="179.5117" gradientTransform="matrix(1 0 0 -1 0 502)"><stop offset="0" style="stop-color: rgb(6, 87, 122); stop-opacity: 0;"></stop><stop offset="0.99" style="stop-color: rgb(6, 87, 122);"></stop></linearGradient><path d="
		M104.2,397.3c32.1-19.2,96.1-52.8,103.8-59.8l-1.8-6.8L162.8,305L57.2,366.3C72.2,378.9,88,386.3,104.2,397.3z" style="opacity: 0.41; fill: url(&quot;#SVGID_00000127744715935196709420000001259089669320693388_&quot;);"></path></g><g id="Screen_and_Profiles"><polygon class="st3" points="152.9,132.8 133.1,335.2 213.9,285.7 	"></polygon><polygon class="st4" points="306.4,282.7 303.6,45.8 152.9,132.8 163.1,362.4 	"></polygon><ellipse class="st5" transform="matrix(0.1898 -0.9818 0.9818 0.1898 18.2418 398.1181)" cx="250.3" cy="188" rx="5.7" ry="4.4"></ellipse><path class="st5" d="M260.2,182l23.9-13.2c1.4-0.8,0.1-2.9-1.3-2.2L259,179.8C257.6,180.6,258.9,182.8,260.2,182L260.2,182z"></path><path class="st5" d="M261.8,186.9l15.1-8.1c1.4-0.8,0.2-2.9-1.3-2.1l-15.1,8.1C259.1,185.5,260.3,187.6,261.8,186.9L261.8,186.9z"></path><path class="st6" d="M247.8,188l1.3-1.5c0.5,0.8,1.1,1.6,1.8,2.4c0-0.2,3.6-8.3,3.6-8.3l1.4,1.6l-4.6,9.6L247.8,188z"></path><path class="st5" d="M247.1,96.7c8.6-4.9,31-17.8,40.5-23.3c1.4-0.8,3.2-0.3,4,1.1c0.2,0.4,0.4,0.9,0.4,1.4v70.5
		c0,2.2-1.1,4.2-3,5.3l-40.9,24.5c-1.4,0.8-3.2,0.4-4-1c-0.3-0.4-0.4-1-0.4-1.5v-71.1C243.6,100.2,245,97.9,247.1,96.7z"></path><path class="st5" d="M178.6,138c0.5-0.2,48.4-27.8,48.4-27.8v79.1l-48.4,29V138z"></path><path class="st5" d="M243.7,209.8c0.5-0.2,48.3-27.8,48.3-27.8v79.1L243.7,290V209.8z"></path><path class="st5" d="M178.6,247.5c0.5-0.2,48.4-27.8,48.4-27.8v79.1l-48.4,29V247.5z"></path><path class="st7" d="M276.1,96.1c-8.7-3-19.1,4.1-23.1,15.9c-3.5,10.1-1.2,20.3,4.9,24.9c0.9-3.9,3.2-9.9,9.4-13
		c5.2-2.9,11.7-1.9,15.9,2.3c0.5-1.1,1-2.2,1.4-3.4C288.6,111.2,284.8,99.2,276.1,96.1z"></path><ellipse class="st8" transform="matrix(0.3266 -0.9452 0.9452 0.3266 73.5683 332.0733)" cx="269.8" cy="114.4" rx="10.3" ry="7.6"></ellipse><path class="st8" d="M267.2,124c-6.1,3.2-8.5,9.1-9.4,13c1.1,0.8,2.2,1.4,3.5,1.9c7.8,2.7,17-2.8,21.7-12.6
		C278.9,122.1,272.4,121.1,267.2,124z"></path><path class="st7" d="M210.1,133.5c-8.7-3-19.1,4.1-23.2,15.9c-3.5,10.1-1.2,20.3,4.9,24.9c0.9-3.9,3.2-9.9,9.4-13
		c5.2-2.9,11.7-1.9,15.9,2.3c0.5-1.1,1-2.2,1.4-3.4C222.6,148.5,218.8,136.5,210.1,133.5z"></path><ellipse class="st8" transform="matrix(0.3266 -0.9452 0.9452 0.3266 -6.1342 294.8506)" cx="203.8" cy="151.7" rx="10.3" ry="7.6"></ellipse><path class="st8" d="M201.2,161.3c-6.2,3.2-8.5,9.1-9.4,13c1,0.8,2.2,1.4,3.5,1.9c7.9,2.7,17-2.8,21.8-12.6
		C212.9,159.4,206.5,158.4,201.2,161.3z"></path><path class="st7" d="M210.1,241.8c-8.7-3-19.1,4.1-23.2,15.9c-3.5,10.1-1.2,20.3,4.9,24.9c0.9-3.9,3.2-9.9,9.4-13
		c5.2-2.9,11.7-1.9,15.9,2.3c0.5-1.1,1-2.2,1.4-3.4C222.6,256.8,218.8,244.8,210.1,241.8z"></path><ellipse class="st8" transform="matrix(0.3266 -0.9452 0.9452 0.3266 -108.5595 367.8281)" cx="203.8" cy="260.1" rx="10.3" ry="7.6"></ellipse><path class="st8" d="M201.2,269.7c-6.2,3.2-8.5,9.1-9.4,13c1,0.8,2.2,1.4,3.5,1.9c7.9,2.7,17-2.8,21.8-12.6
		C212.9,267.7,206.5,266.8,201.2,269.7z"></path><path class="st7" d="M277.2,201.6c-8.7-3-19.1,4.1-23.2,15.9c-3.5,10.1-1.2,20.3,4.9,24.9c0.9-3.9,3.2-9.9,9.4-13
		c5.2-2.9,11.7-1.9,15.9,2.3c0.5-1.1,1-2.2,1.4-3.4C289.6,216.6,285.9,204.6,277.2,201.6z"></path><ellipse class="st8" transform="matrix(0.3266 -0.9452 0.9452 0.3266 -25.3931 404.1233)" cx="270.9" cy="219.9" rx="10.3" ry="7.6"></ellipse><path class="st8" d="M268.3,229.4c-6.1,3.2-8.5,9.1-9.4,13c1.1,0.8,2.2,1.4,3.5,1.9c7.9,2.7,17-2.8,21.8-12.6
		C280,227.5,273.5,226.6,268.3,229.4z"></path><ellipse class="st5" transform="matrix(0.1898 -0.9818 0.9818 0.1898 -75.8523 366.1013)" cx="183.9" cy="229" rx="5.7" ry="4.4"></ellipse><path class="st5" d="M193.8,223l23.9-13.2c1.4-0.8,0.1-2.9-1.3-2.2l-23.9,13.2C191.1,221.6,192.4,223.8,193.8,223L193.8,223z"></path><path class="st5" d="M195.3,227.9l15.1-8.1c1.4-0.8,0.2-2.9-1.3-2.2l-15.1,8.1C192.6,226.5,193.9,228.6,195.3,227.9z"></path><path class="st6" d="M181.4,229l1.3-1.5c0.5,0.8,1.1,1.6,1.8,2.4c0-0.2,3.6-8.3,3.6-8.3l1.4,1.6l-4.6,9.6L181.4,229z"></path><ellipse class="st5" transform="matrix(0.1898 -0.9818 0.9818 0.1898 -170.6457 456.6182)" cx="191.3" cy="331.7" rx="5.7" ry="4.5"></ellipse><path class="st5" d="M201.2,325.7l23.9-13.2c1.4-0.8,0.1-2.9-1.3-2.2L200,323.5C198.6,324.3,199.9,326.5,201.2,325.7L201.2,325.7z"></path><path class="st5" d="M202.8,330.6l15.1-8.1c1.4-0.8,0.2-2.9-1.3-2.2l-15.1,8.1C200.1,329.2,201.4,331.3,202.8,330.6z"></path><path class="st6" d="M188.8,331.7l1.3-1.5c0.5,0.8,1.1,1.6,1.8,2.4c0-0.2,3.6-8.3,3.6-8.3l1.4,1.5l-4.6,9.6L188.8,331.7z"></path><ellipse class="st5" transform="matrix(0.1898 -0.9818 0.9818 0.1898 -87.4635 488.7158)" cx="252.4" cy="297.4" rx="5.7" ry="4.5"></ellipse><path class="st5" d="M262.3,291.3l23.9-13.2c1.4-0.8,0.1-2.9-1.3-2.2L261,289.2C259.6,290,260.9,292.1,262.3,291.3L262.3,291.3z"></path><path class="st5" d="M263.8,296.2l15.2-8.1c1.4-0.8,0.1-2.9-1.3-2.2l-15.2,8.1C261.2,294.8,262.4,297,263.8,296.2L263.8,296.2z"></path><path class="st6" d="M249.9,297.3l1.3-1.5c0.5,0.8,1.1,1.6,1.7,2.4c0-0.2,3.6-8.3,3.6-8.3l1.4,1.5l-4.6,9.6L249.9,297.3z"></path></g><g id="_Pencil_case"><path class="st3" d="M117.4,311.4c-17.7,0-32.1,4.7-32.1,10.5h64.2C149.5,316.1,135.2,311.4,117.4,311.4z"></path><path class="st3" d="M85.4,322.7c-0.1-0.5-0.1-0.8-0.1-0.8C85.3,322.2,85.4,322.5,85.4,322.7z"></path><path class="st3" d="M149.5,321.9l-0.1,0.9C149.5,322.6,149.5,322.2,149.5,321.9z"></path><path class="st3" d="M117.4,332.4c16.8,0,30.5-4.2,32-9.6l0.1-0.9H85.3c0,0,0,0.3,0.1,0.8C86.7,328.2,100.6,332.4,117.4,332.4z"></path><rect class="st6" x="122.5" y="267.8" width="7.2" height="74.5"></rect><ellipse class="st6" cx="126.1" cy="267.8" rx="3.6" ry="1.5"></ellipse><rect class="st7" x="97.5" y="314.1" transform="matrix(0.2001 -0.9798 0.9798 0.2001 -203.5166 386.2124)" width="74.5" height="7.2"></rect><ellipse class="st7" transform="matrix(0.2001 -0.9798 0.9798 0.2001 -161.8082 364.3143)" cx="142.2" cy="281.2" rx="1.5" ry="3.6"></ellipse><path class="st7" d="M108.7,323.6l-6.6,3.8c-0.3,0.1-0.6,0-0.8-0.3c-0.1-0.3,0-0.6,0.2-0.7l6.7-3.9c0.1,0,0.1-0.1,0.2-0.1l-1.3-7.1
		l-6.6,3.8c-0.3,0.1-0.6,0-0.8-0.3c-0.1-0.3,0-0.6,0.2-0.7l6.7-3.9c0.1,0,0.2-0.1,0.2-0.1l-1.2-6.6l-6.5,3.7c-0.3,0.1-0.6,0-0.8-0.3
		c-0.1-0.3,0-0.6,0.2-0.7l6.7-3.9l0.1,0l-1.4-7.3l-6.5,3.7c-0.3,0.1-0.6-0.1-0.7-0.4c-0.1-0.2,0-0.5,0.2-0.6l6.8-3.9l0.1,0l-1.3-7.2
		l-6.6,3.7c-0.3,0.1-0.6-0.1-0.7-0.4c-0.1-0.2,0-0.5,0.2-0.6l6.8-3.9c0.1,0,0.1-0.1,0.2-0.1l-1.2-6.2l-6.6,3.8
		c-0.3,0.1-0.6,0-0.8-0.3c-0.1-0.3,0-0.6,0.2-0.7l6.8-3.9c0.1,0,0.1-0.1,0.2-0.1l-1.2-6.2l-6.6,3.8c-0.3,0.1-0.6,0-0.8-0.3
		c-0.1-0.3,0-0.6,0.2-0.7l6.7-3.9c0.1,0,0.1-0.1,0.2-0.1l-1.3-6.9l-6.5,3.7c-0.3,0.1-0.6,0-0.8-0.3c-0.1-0.3,0-0.6,0.2-0.7l6.7-3.9
		h0.1l-0.6-3.2l-14.3,8.9c0,0,10.2,56.6,10.4,56.7c5.9,3.1,16.7,3.5,16.7,3.5L108.7,323.6z"></path><path class="st9" d="M91.3,270.5c-0.3,0.2-0.3,0.5-0.1,0.8c0.2,0.2,0.5,0.3,0.7,0.2l6.5-3.7l-0.2-1.2H98L91.3,270.5z"></path><path class="st9" d="M92.7,278.5c-0.3,0.2-0.3,0.5-0.1,0.8c0.2,0.2,0.5,0.3,0.7,0.2l6.6-3.8l-0.2-1.2c-0.1,0-0.1,0-0.2,0.1
		L92.7,278.5z"></path><path class="st9" d="M94,285.9c-0.3,0.2-0.3,0.5-0.1,0.8c0.2,0.2,0.5,0.3,0.7,0.2l6.6-3.8L101,282c-0.1,0-0.1,0-0.2,0.1L94,285.9z"></path><path class="st9" d="M95.4,293.3c-0.2,0.2-0.3,0.6,0,0.8c0.2,0.2,0.4,0.2,0.6,0.2l6.6-3.8l-0.2-1.2c-0.1,0-0.1,0-0.2,0.1
		L95.4,293.3z"></path><path class="st9" d="M97.1,301.6c-0.2,0.2-0.3,0.6,0,0.8c0.2,0.2,0.4,0.2,0.6,0.2l6.5-3.7l-0.2-1.2l-0.1,0L97.1,301.6z"></path><path class="st9" d="M98.6,310.2c-0.3,0.2-0.3,0.5-0.1,0.8c0.2,0.2,0.5,0.3,0.7,0.2l6.5-3.7l-0.2-1.2l-0.1,0L98.6,310.2z"></path><path class="st9" d="M106.7,314.2L100,318c-0.3,0.2-0.3,0.5-0.1,0.8c0.2,0.2,0.5,0.3,0.7,0.2l6.6-3.8l-0.2-1.2
		C106.9,314.1,106.8,314.1,106.7,314.2z"></path><path class="st9" d="M101.6,326.3c-0.3,0.2-0.3,0.5-0.1,0.8c0.2,0.2,0.5,0.3,0.7,0.2l6.6-3.8l-0.2-1.2c-0.1,0-0.1,0-0.2,0.1
		L101.6,326.3z"></path><path class="st10" d="M138.7,280.5c0,0,0.4,1.9,3.2,2.2s3.9-0.8,3.9-0.8l-0.9-14.2L138.7,280.5z"></path><path class="st9" d="M144.8,267.8l-2.8,5.9c0.8,0.9,2.2,1.1,3.3,0.5L144.8,267.8z"></path><path class="st10" d="M122.5,267.3c0,0,0.7,1.8,3.5,1.7c2.9-0.1,3.7-1.4,3.7-1.4l-3.2-13.9L122.5,267.3z"></path><path class="st9" d="M126.5,253.8l-1.9,6.3c1,0.8,2.4,0.8,3.3-0.1L126.5,253.8z"></path><path class="st4" d="M117.4,332.4c-16.9,0-30.7-4.3-32-9.7c0.8,6.5,6.6,51,6.8,51.3c0,0,2.9,12.6,25.2,12.5
		c18.9,0,24.3-9.5,24.3-9.5l7.7-54.2C148,328.2,134.2,332.4,117.4,332.4z"></path></g><g id="Character"><path class="st11" d="M308.2,166l-6.3-4.7c0-0.4-0.2-0.8-0.6-1c-6-4.2-12.1-8.4-18.1-12.7c-0.7-0.5-1.6-0.3-2.1,0.4
		c-0.1,0.1-0.2,0.3-0.2,0.4c-0.6,1.1,0.2,2.2,1.2,3.1s2.3,1.9,3.5,2.8c-0.1,0.1-0.3,0.3-0.4,0.4c-0.9,1.5-2.5,3.5-2.5,5.3
		c0,1.6,1.4,2.7,2.6,3.7v0.3c-0.2,2.2,0.8,2.8,2.5,3.9c0.3,0.2,0.8,0.3,1.2,0.2c1.2,0.8,2.5,1.4,3.9,2l5.3,2.7
		c1.4,0.7,2.3-0.9,1.8-2c1.1,0.1,1.5-1.1,1.2-2c0.1-0.1,0.2-0.3,0.3-0.5c0,0,0-0.1,0-0.1l1.9,1.4c1.5,1.2,3.2-1.2,1.8-2.3l-1.3-1
		l2.7,2C307.9,169.5,309.7,167.1,308.2,166z"></path><path class="st3" d="M350,351.3l2.3-1.5l-0.1-25.6l-11.2-0.4c0,0-0.2,10.9-2.8,13.4s-9.2,0.7-9.9,0.9s-5.1-1.1-7.1,1s6.8,8,11.4,9
		c3.2,0.6,6.4,0.8,9.6,0.4c0,0,1-6.6,2.6-5.9s1.7,7.6,1.7,7.6L350,351.3z"></path><path class="st7" d="M358.5,215.6c1.6,8.8,2.5,17.7,2.8,26.6c0.2,10.1-3.4,90.7-3.4,90.7s-6.7,7.8-22.9,3.1
		c-2.4-0.7-3.1-78.6-3.1-78.6l5.6-35.8"></path><path class="st3" d="M351,174.9c-0.9,0.1-30.8-0.8-51.1-18.9c0,0-9.7,9.5-5.8,16.8c0,0,28.7,27.6,50.6,22"></path><path class="st3" d="M319.2,371l2.3-1.5l-0.1-25.6l-11.2-0.4c0,0-0.2,11-2.8,13.5s-9.2,0.7-9.9,0.9s-5.1-1.1-7.1,1s6.8,8,11.4,9
		c3.2,0.6,6.4,0.8,9.6,0.4c0,0,1-6.6,2.6-5.9s1.7,7.6,1.7,7.6L319.2,371z"></path><path class="st7" d="M323.3,219.3c0,0-10.4,38.3-14.6,72.6c-1,8.2-9.5,57.3-9.5,57.3s14,5.1,26.5,1.1c0,0,14.8-62.6,15.5-63.8
		s10.6-41.8,11.8-70.9"></path><path class="st3" d="M355,170.6l-5.9-2.2c-1.5,0.1-15,4.5-21.1,13.4c-0.9,2.8-1.5,5.6-2,8.5c-0.8,3.9-1.5,7.7-1.9,11.6
		c-0.6,4.2-0.8,8.5-0.7,12.8c0,1.8,0.1,2.8,0.3,4.6c0.7,0.7,1.4,1.2,2.3,1.6c17.7,7.6,31.7-1.6,32.4-3.1s3-22.3,4.4-34.7
		C363.3,177.7,360.1,172.5,355,170.6z"></path><path class="st11" d="M340.5,147.9c0,0-5.6,20.2,1.8,23s16.9-5.1,17.9-9.3S351.6,141.8,340.5,147.9z"></path><path class="st7" d="M377,141.9c-2-4.2-6.7-6.3-11.2-4.9c-4.1,1.3-6.5,4.8-7.7,8.7c-3.7-3.2-9.1-4.8-16.1-2.7c0,0-6.8,2.9-5.6,7.2
		s6.4,4.4,10.7,5.2s0.8,4.6,1,8.9s2.1,5,3.9,5.4s10-1.4,11.1-11.1c0.1-0.6,0.1-1.2,0.1-1.8c1.1,0.1,2.3,0.2,3.4,0.1
		c2.6,0.1,5.1-0.6,7.2-2C377.9,152.1,379.1,146.1,377,141.9z"></path><path class="st11" d="M333.4,170c0.6-0.8,0.8-1.8,0.7-2.7c-0.2-0.8-0.9-1.3-1.7-1.2c-0.4,0.1-0.7,0.3-0.9,0.6l-0.6,0.9
		c-0.1-1.1-0.2-2.2-0.4-3.3c-0.2-1.7-2.6-1.5-2.9,0.1c0,0.4-0.1,0.7-0.1,1.1c-0.1,0.4-0.2,0.8-0.2,1.1c-1.6,0.2-3.4,0.8-3.7,2.6
		c0,0,0,0.1,0,0.1c-1.2,0.1-2.4,0.5-2.4,1.9c0,0.3,0,0.6,0,0.8c-1.2,0.4-2.1,1-1.9,2.6c0.3,1.9,0.7,3.7,1.4,5.4
		c0.2,0.5,0.6,0.8,1.1,0.8c0.2,0.8,0.4,1.5,0.6,2.3c0.2,0.6,0.7,1,1.3,1.1c0.7,0.5,1.6,0.4,2.2-0.3c0.1-0.1,0.2-0.2,0.2-0.4
		c0.1,0,0.3,0,0.4-0.1c0.4,0.2,0.8,0.3,1.2,0.2c0.7,0.4,1.6,0.2,2.1-0.5c0-0.1,0.1-0.1,0.1-0.2c0.3-0.3,0.5-0.8,0.5-1.2
		c0-0.3,0-0.7,0-1l0,0C331.3,177.2,332.4,173.6,333.4,170z"></path><path class="st3" d="M330.9,177.5c-0.5,0.1-7-5.8-11.9-3.8c0,0-18.7,31.6-1.3,39.9c8.7,4.1,15.4-8.6,15.4-8.6l-5-9.8L330.9,177.5z"></path><path class="st9" d="M329.4,178.7c-4.1,6.7-6.9,14.1-8.3,21.8c-0.2,0.9,1.2,1.3,1.4,0.4c1.4-7.6,4.1-14.9,8.2-21.5
		C331.1,178.7,329.9,178,329.4,178.7z"></path><path class="st9" d="M332.9,206.2c-1.5,2.8-3.3,5.7-6.2,7.2c-3.4,1.8-7.6,0.8-10.4-1.6c-6.1-5.3-5.2-14.4-4-21.5
		c0.2-0.9-1.2-1.3-1.4-0.4c-1.4,8-2.2,18.4,5.4,23.7c2.9,2.2,6.8,2.7,10.2,1.5c3.6-1.5,5.9-4.9,7.6-8.2
		C334.5,206.1,333.3,205.4,332.9,206.2z"></path><path class="st9" d="M348.6,243.7c-0.9,18.3-6.3,35.9-10.9,53.5s-8.5,35.2-11.8,53c0.5-0.1,1-0.3,1.5-0.4c3.4-18,7.4-35.8,12-53.5
		c4.5-17.3,9.7-34.5,10.6-52.5C350.1,242.8,348.6,242.8,348.6,243.7z"></path></g></svg>