<svg transform="scale(1)" version="1.1" id="Layer_1" xmlns="http://www.w3.org/2000/svg" xmlns:xlink="http://www.w3.org/1999/xlink" x="0px" y="0px" viewBox="0 0 500 500" xml:space="preserve" class="show_show__wrapper__graphic__5Waiy "><title>React</title><style type="text/css">
	.st0{fill:#FEE9D4;}
	.st1{fill:url(#SVGID_1_);}
	.st2{fill:url(#SVGID_00000052826755284977152340000013107923013245643949_);}
	.st3{fill:#FEE9D4;}
	.st4{fill:#3b82f6;}
	.st5{fill:#a855f7;}
	.st6{fill:#FFA197;}
	.st7{fill:#F2F2F2;}
	.st8{fill:#1B896C;}
	.st9{fill:#37B596;}
	.st10{fill:#CC6C62;}
</style><path class="st0" id="Base" d="M39.5,332.9L254,455.5c2.6,1.5,5.7,1.5,8.3,0l198.2-116c3.9-2.3,5.3-7.3,3-11.3
	c-0.8-1.4-2-2.5-3.3-3.2L244.1,212.5c-2.4-1.3-5.3-1.3-7.7,0l-196.6,106c-4,2.1-5.5,7.1-3.4,11.2c0,0,0,0,0,0
	C37.1,331,38.2,332.1,39.5,332.9z"></path><g id="Shadow"><linearGradient id="SVGID_1_" gradientUnits="userSpaceOnUse" x1="254.2221" y1="-1718.5675" x2="209.2321" y2="-1681.9374" gradientTransform="matrix(1 0 0 1 0 1999.96)"><stop offset="0" style="stop-color: rgb(212, 163, 151);"></stop><stop offset="1" style="stop-color: rgb(254, 233, 212);"></stop></linearGradient><path class="st1" d="M231.8,297.3l-36.6,17.8c5.4,3.6,11.1,6.7,17,9.4l37.3-24.8"></path><linearGradient id="SVGID_00000000905797364763074060000015754244737189801347_" gradientUnits="userSpaceOnUse" x1="339.0969" y1="-1637.7916" x2="262.4369" y2="-1575.4015" gradientTransform="matrix(1 0 0 1 0 1999.96)"><stop offset="0" style="stop-color: rgb(212, 163, 151);"></stop><stop offset="1" style="stop-color: rgb(254, 233, 212);"></stop></linearGradient><path d="M286.7,383.4l-53.8,29.1
		c0,0,19.1,20,38,28l65.8-40.4" style="fill: url(&quot;#SVGID_00000000905797364763074060000015754244737189801347_&quot;);"></path></g><g id="Clock"><ellipse class="st3" transform="matrix(0.1106 -0.9939 0.9939 0.1106 -100.6957 245.4104)" cx="86.8" cy="179" rx="29.9" ry="19.2"></ellipse><path class="st4" d="M92.7,174.7l-4,4.1v-17.6c-0.1-1.3-1.2-2.2-2.4-2.1c-1.1,0.1-2.1,1-2.1,2.1v23.2c0.1,1.3,1.2,2.2,2.5,2.1
		c0.5,0,1-0.2,1.3-0.5l0,0l8-8c0.9-0.9,0.9-2.4,0-3.3C95.1,173.9,93.7,173.9,92.7,174.7L92.7,174.7z"></path></g><g id="Pie_Chart"><path class="st5" d="M139.3,287.9l93.6-51.4c3.7-2,5.9-5.9,5.9-10.1V54.8c0-6.3-5.2-11.5-11.5-11.4c-2,0-4,0.5-5.7,1.5L128,99
		c-3.5,2-5.7,5.8-5.7,9.9v168.9c0,6.3,5.1,11.4,11.5,11.4C135.7,289.3,137.6,288.8,139.3,287.9L139.3,287.9z"></path><path class="st4" d="M174.1,123.3c5.6-5.7,11.6-8.7,17.2-8.7c1.1,0,2.1,0.1,3.1,0.3c4.3,1.1,8.1,3.7,10.6,7.4
		c2.5-3.5,5.2-6.7,8.1-9.9c-4.2-4.9-9.8-8.3-16.1-9.7c-10.8-2.3-22.2,1.9-31.8,11.8c-2.9,3-5.5,6.2-7.7,9.7c3.6,2.1,7,4.4,10.5,6.7
		C169.7,128.3,171.8,125.7,174.1,123.3z"></path><path class="st6" d="M174.1,211.1c-5.9-1.8-10.9-7.3-14-15.6c-3.7-9.9-4.2-22.2-1.6-34.7c1.5-7.4,4.2-14.5,8-21
		c-3.5-2.3-6.9-4.6-10.5-6.8c-4.6,7.8-7.8,16.4-9.6,25.3c-3.1,14.8-2.4,29.6,2.1,41.7s12.1,20,21.6,23
		C171.3,218.9,172.6,215,174.1,211.1z"></path><path class="st7" d="M221.3,132.8c-1.6-4.3-3.7-8.3-6.5-12c-2.9,3.2-5.6,6.6-8.1,10.2c1.2,2,2.2,4,3,6.2c3.7,9.9,4.2,22.2,1.6,34.7
		s-8.2,23.6-15.5,31.1c-6.1,6.3-12.8,9.3-18.9,8.6c-1.6,3.9-2.9,7.9-4.1,11.9h0.1c1.9,0.4,3.8,0.6,5.8,0.6c9,0,18.1-4.3,26-12.5
		c8.9-9.1,15.6-22.3,18.7-37.1S225.8,144.9,221.3,132.8z"></path><ellipse class="st7" transform="matrix(0.1106 -0.9939 0.9939 0.1106 5.4474 334.292)" cx="189.5" cy="164.1" rx="14.1" ry="7.8"></ellipse><path class="st7" d="M222,226.7l-58.3,29.2c-0.9,0.7-1.1,1.9-0.4,2.8c0.5,0.7,1.4,1,2.2,0.7l0,0l58.3-29.3c0.8-0.7,0.9-2,0.2-2.8
		C223.5,226.7,222.7,226.5,222,226.7L222,226.7z"></path><path class="st7" d="M222,217.6l-58.3,29.3c-1.1,0.3-1.7,1.4-1.4,2.5c0.3,1.1,1.4,1.7,2.5,1.4c0.2-0.1,0.4-0.2,0.6-0.3l58.3-29.3
		c1.1-0.3,1.7-1.4,1.4-2.5c-0.3-1.1-1.4-1.7-2.5-1.4C222.4,217.4,222.2,217.5,222,217.6L222,217.6z"></path></g><g id="Plant"><path class="st8" d="M254.7,235.4c-0.5-0.1-1.1,0-1.6,0.1c-1.4,2.5-2.8,5-4.2,7.6l-2.6,6.2c-0.6,1.5-1.3,3-1.9,4.6
		c-1,3.6-1.7,7.4-2.5,11c0.4,0.5,1.1,0.9,1.7,1.1c1.5-1.9,3.5-3,5.5-4.3c2.8-2.1,5-4.9,6.4-8.1c0.6-1.2,1.1-2.5,1.5-3.8
		c0.2-1.3,0.4-2.7,0.5-4C256.4,242.3,255.4,238.9,254.7,235.4z"></path><path class="st8" d="M228.4,263.5c-0.1-0.1-0.2-0.2-0.2-0.3c-1.6-0.8-3.1-1.5-4.8-2.2c-0.5-0.4-1-0.7-1.5-1.1
		c-0.2,0.2-0.4,0.3-0.7,0.3c-2.4-0.1-4.7-0.3-7-0.8c-0.1,0.2-0.2,0.4-0.2,0.6c2.1,2.4,3.5,5.4,4.1,8.5c0.4,0.5,0.9,1,1.5,1.6
		c2.3,0.9,5.5,0.7,8.1,1.1c0.1-0.3,0.2-0.5,0.3-0.8h0.1c0.9,0.3,1.8,0.7,2.6,1.1c1.7,0.3,3.4,0.9,4.8,2c0.4-0.1,0.7-0.4,1.1-0.6
		C233.7,269.8,231.3,266.4,228.4,263.5z"></path><path class="st5" d="M228,283.9l3.3,15.5c0.2,1,0.9,1.9,1.9,2.4c1.9,1,5.9,1.9,13.5,0.6c1.4-0.3,2.5-1.3,2.8-2.7l3.4-15.7"></path><ellipse class="st4" cx="240.5" cy="283.9" rx="12.4" ry="5.1"></ellipse><path class="st9" d="M257.6,245.5c-0.3-3.8-2.8-7.1-2.4-10.9c0-0.4-0.3-0.6-0.7-0.6c-0.2,0-0.4,0.1-0.5,0.3
		c-6.4,9.5-10.6,20.3-12.2,31.7c-0.1,0.1-0.1,0.3,0,0.5c-0.7,5.1-0.8,10.2-0.5,15.3c0.4,0,0.9-0.1,1.3-0.2c-0.3-5-0.2-10,0.5-15
		c2.2-2.6,5.3-3.9,8-5.9c2.3-1.8,4-4.1,5.1-6.7C257.3,251.3,257.8,248.4,257.6,245.5z M254.9,253.4c-1.4,3.1-3.7,5.8-6.7,7.5
		c-1.2,0.8-2.4,1.5-3.6,2.4c2.4-4.7,4.4-9.5,6.1-14.4c0.3-0.8-1-1.1-1.3-0.4c-1.6,4.7-3.5,9.2-5.7,13.6c1.8-9,5.3-17.6,10.2-25.3
		c0.3,2.1,1.3,4,1.9,6.2C256.7,246.4,256.4,250.1,254.9,253.4L254.9,253.4z"></path><path class="st9" d="M240.6,281.8c-1-2.7-2-5.4-3.3-8c0-0.2-0.1-0.5-0.3-0.6l0,0c-1.5-3.2-3.6-6.1-6.1-8.6
		c-4.9-4.7-11.4-5.9-18-6.6c-0.7-0.1-0.8,0.7-0.4,1.1c0,0.2,0.1,0.3,0.3,0.4c3.9,2.4,2.8,8.6,6.9,10.8c1.9,1.1,4.3,0.8,6.4,0.8
		c2.8,0,5.6,0.7,8.1,1.9c2.2,2.5,3.7,5.4,4.4,8.7C239.3,281.8,239.9,281.8,240.6,281.8z M222.6,263.9c-0.8-0.3-1.1,1-0.4,1.3
		c3.5,1.2,6.7,3.1,9.6,5.5c-0.7-0.2-1.4-0.4-2.1-0.5c-2.8-0.4-7,0.4-9.4-1c-3.4-2-3.1-6.8-5.5-9.7c5.9,0.8,11.5,2.2,15.9,6.7
		c1.6,1.6,2.9,3.5,4.1,5.5C231.3,268.2,227.2,265.5,222.6,263.9L222.6,263.9z"></path></g><g id="Character"><path class="st6" d="M324.7,374.2c0,0,1.5,8.9,1.1,11.6s-6.4,10.5-9.1,11.6s-6.1,1.9-4.6,6.1s18-2.9,19.3-3.9s2.8-11.5,3.3-11.1
		s0.2,11.8,1.9,11.6s0-28.7,0-28.7"></path><path class="st6" d="M291.9,362.9c0,0,0,9.1-0.7,11.7s-7.9,9.4-10.8,10s-6.4,1-5.4,5.4s18.2,0,19.7-0.9s4.6-11,5-10.4
		s-1.6,11.8,0,11.8s4.4-28.4,4.4-28.4"></path><path class="st10" d="M325.4,379l0.5,6.8c0,0,6.9-0.5,11.3-4.5v-3.3"></path><path class="st10" d="M291.7,366.7l-0.3,6.8c0,0,6.9,0.3,11.7-3.2l0.4-3.2"></path><path class="st3" d="M251.7,157.6c0,0-11.6-14.8-14.5-14.7s-1.8,3-1.8,3s-7.4-5.7-11.6-1.7c0,0-3.8-1.9-4.7,0
		c-0.5,1.2-0.2,2.6,0.7,3.5c0,0-2.2,1.8-1.5,3.1c0.4,0.7,1.2,1.2,2,1.2c0,0-1.4,0.7-1,1.9s13.2,11.3,31.4,11.7"></path><path class="st4" d="M239.6,159.7h-0.2c-0.4-0.6-0.7-1.3-0.9-2c-0.3-0.8-0.4-1.5-0.5-2.4c-0.1-1.6,0.2-3.2,0.8-4.7
		c0.1-0.1,0.1-0.3,0-0.4c-1.4-1.7-2.7-3.5-3.7-5.5c-0.2-0.4-0.7,0-0.5,0.3c0.8,1.6,1.7,3.1,2.8,4.4c0.6,0.8,0.8,1,0.5,1.9
		c-0.2,0.7-0.4,1.4-0.4,2.1c-0.1,1.5,0.1,3.1,0.7,4.5c0.2,0.6,0.7,2.2,1.5,2.3c0.2,0,0.3,0,0.4-0.2c0,0,0,0,0,0l0,0v-0.1
		c0.1-0.1,0-0.3-0.1-0.4c0,0,0,0,0,0C239.8,159.7,239.7,159.7,239.6,159.7z"></path><path class="st4" d="M235,148.5l-10.9-4.8c-0.3-0.1-0.6,0.4-0.3,0.5l10.9,4.8C235.1,149.2,235.4,148.7,235,148.5z"></path><path class="st4" d="M232.8,151.3c-4.5-0.5-8.8-1.9-12.7-4c-0.3-0.2-0.6,0.3-0.3,0.5c4,2.1,8.5,3.5,13,4.1
		C233.2,151.9,233.1,151.3,232.8,151.3z"></path><path class="st4" d="M231.8,154.6c-4.1-0.6-8.1-1.6-12-3.1c-0.4-0.1-0.5,0.4-0.2,0.6c3.9,1.5,7.9,2.6,12,3.1
		C232,155.3,232.2,154.7,231.8,154.6z"></path><path class="st4" d="M293.5,212.3c0,0-16,92.3-15.7,150.6c0,0,20.7,10.1,33.2,3.7c0,0,4.8-138.3,10.5-148"></path><path class="st4" d="M308.2,217.6c0,0,4.3,125.2,4.9,159.3c0,0,28.1,6.8,31.2-1s-10.7-160.9-10.7-160.9"></path><path class="st4" d="M343.7,376.9c8.1-17.2,6.4-45.4,4-59.5s-0.8-28.1-0.5-51s-10.7-47.4-10.7-47.4l-8.1,1.3"></path><path class="st6" d="M312.9,221.5c8,2,17,3.7,24.4-0.7c12.4-52.1,3.3-68.3-18-74.5c-8.4-2.4-17.2,2.1-21.4,9
		c-2.4,20.1-4.4,38.7-4.4,58.8c0,1,7.1,3.5,8.1,3.9c2.9,1.1,5.9,2,8.9,2.8L312.9,221.5z"></path><path class="st6" d="M300.4,152c0,0-15.9,22.5-48.3,0.3c0,0-11.1,13.5-9.3,15.6s36.6,28.8,53.1,14.3"></path><path class="st5" d="M250.1,150.7c-0.8-0.4,1.3,44,1.3,44l24.9,10l-1.1-27.8l-1.5-16.5C273.7,160.4,250.9,151.1,250.1,150.7z"></path><path class="st7" d="M313.2,249.5c0-0.4-0.3-0.7-0.7-0.7s-0.7,0.3-0.7,0.7c-1.1,43-0.8,85.9,0.9,128.9c0,0.8,1.4,0.8,1.3,0
		C312.4,335.4,312.1,292.5,313.2,249.5z"></path><path class="st6" d="M299.6,185.6c-1-0.3-15.5-4.1-15.5-4.1l-1.7,19.6l19.1,6.8"></path><path class="st3" d="M284.1,183.5c0,0-4.6-3.4-5.4-3.8s1.8-9.5-4.4-11.1l1.2,6.3c0,0-11.9-1.3-14.2-0.3S260,179,260,179
		s-3.6,0.1-3,2.6c0.3,1.4,1.3,2.5,2.7,2.7c0,0-2.7,2.1-1.2,3.8l1.6,1.7c0.1,1.3,0.6,2.6,1.5,3.6c1.3,1.5,15.8-1.7,15.8-1.7l6.1,4.7
		L284.1,183.5z"></path><path class="st4" d="M272,178.7c-4.1,0.3-8.2,0.2-12.2-0.2c-0.2,0-0.3,0.2-0.3,0.4c0,0.1,0.1,0.2,0.3,0.3c4.1,0.4,8.1,0.5,12.2,0.2
		C272.4,179.3,272.4,178.7,272,178.7z"></path><path class="st4" d="M272.6,183.1c-4.4,1-8.9,1.4-13.5,1.4c-0.2,0-0.3,0.1-0.3,0.3v0c0,0.2,0.1,0.3,0.3,0.3c0,0,0,0,0,0
		c4.6,0,9.2-0.5,13.6-1.5C273.1,183.6,273,183,272.6,183.1z"></path><path class="st4" d="M271.9,187.6c-3.9,1-7.9,1.7-11.9,2c-0.2,0-0.3,0.1-0.3,0.3s0.1,0.3,0.3,0.3c4,0,8.1-1.2,12.1-2
		C272.5,188.2,272.3,187.6,271.9,187.6z"></path><path class="st10" d="M309.8,147.4L309.8,147.4c0,0-1.2,11.2,7.3,7.9c3.6-1.4,7-3.1,10.4-5.1v-6.8"></path><path class="st3" d="M304.5,123.9c0,0-4.1,22.3,5.2,25.9s17.9-13.3,17.9-18.4C327.6,120.6,317,121.5,304.5,123.9z"></path><path class="st4" d="M357.9,180.7c-0.2-1.4-0.8-2.7-1.7-3.8c-1.9-2.2-5-3.2-6.7-5.6c-2.7-4,1.7-7.6,2-11.6c0.6-7.4-8.9-8.2-13-11.8
		c-2-2-3.3-4.6-3.8-7.4c-2.4-8.5-2.9-18.9-11.1-24.1c-2.6-1.5-5.6-2.3-8.6-2.3c-3.5-0.2-7.4,0.1-10.4,2.2c-2.7,1.9-4.4,4.8-4.6,8.1
		c-0.1,2.3,0.6,5.9,3.4,6.3c1.9,0.2,2.8-1.2,4-2.3s2.1-3,3.4-4.2c0.9-0.8,1.9-1.4,3.1-1.6c4.7-0.7,0.4,7.7,0.4,9.5
		c-0.1,1,0.2,1.9,0.8,2.7c0.8,0.8,1.8,1.4,2.9,1.7c2.2,0.6,6.2,1.8,4.8,5c-0.8,1.8-2.5,3.2-3.5,4.9c-2.1,3.6-2.3,7.8,0.4,11.2
		c1.3,1.5,2.8,2.9,4.4,4c1.8,1.2,3,3.1,3.4,5.2v0.4c-0.4,3.4-1.9,7.8-1.7,11.6c-0.1,1.4,0.3,2.8,1,4c0.7,1.4,1.7,2.6,2.9,3.6
		c5,4.3,11.9,5.7,18.2,3.7c3.1-0.9,6.6-2.1,8.8-4.7C357.6,184.1,358.1,182.4,357.9,180.7z M350.4,159.8c0-0.5,0-1,0-1.5
		c0-0.4-0.1-0.7-0.2-1.1C350.4,158.1,350.5,159,350.4,159.8L350.4,159.8z"></path><path class="st4" d="M304.3,140.3c-2.2,0.3-4.3-1.3-4.6-3.5c-0.3-2.2,1.3-4.3,3.5-4.6c2.2-0.3,4.3,1.3,4.6,3.5c0,0.2,0,0.4,0,0.6
		C307.9,138.4,306.4,140.2,304.3,140.3z M304.3,133c-1.8-0.3-3.5,0.9-3.8,2.8c-0.3,1.8,0.9,3.5,2.8,3.8c1.8,0.3,3.5-0.9,3.8-2.8
		c0-0.2,0-0.4,0-0.5C307.2,134.6,306,133.2,304.3,133L304.3,133z"></path><path class="st4" d="M313.5,141c-2.2,0.3-4.3-1.3-4.6-3.5c-0.3-2.2,1.3-4.3,3.5-4.6c2.2-0.3,4.3,1.3,4.6,3.5c0,0.2,0,0.4,0,0.6
		C317.1,139.1,315.5,140.9,313.5,141z M313.5,133.7c-1.8-0.3-3.5,0.9-3.8,2.8c-0.3,1.8,0.9,3.5,2.8,3.8c1.8,0.3,3.5-0.9,3.8-2.8
		c0-0.2,0-0.4,0-0.5C316.4,135.3,315.1,133.8,313.5,133.7L313.5,133.7z"></path><path class="st4" d="M310.5,136.1c0-0.3-0.5-0.5-0.8-0.6c-0.2-0.1-0.5-0.1-0.7-0.1c0.1-0.3,0.1-0.6,0.2-0.9c0-0.4-0.5-0.5-0.5-0.1
		s-0.1,0.7-0.2,1.1h-0.1c-0.4,0.1-1.5,0.8-1,1.3c0.1,0.1,0.3,0.1,0.4,0c0.1-0.1,0.1-0.2,0.1-0.3c0.1-0.2,0.3-0.3,0.5-0.4
		c-0.1,0.4-0.2,0.9-0.4,1.3c-0.3,1.1-1,2.2-1.3,3.3c-0.2,0.8,0.4,1.1,1.2,1.3c0.1,0,0.3-0.1,0.3-0.2c0-0.2,0-0.3-0.2-0.4
		c-1-0.2-0.7-0.8-0.4-1.5s0.4-1.1,0.6-1.7c0.3-0.7,0.5-1.5,0.7-2.3c0.2,0,0.3,0,0.5,0c0.2,0,0.4,0.1,0.5,0.2c0,0.1,0.1,0.3,0.2,0.3
		c0,0,0.1,0,0.1,0l0,0C310.5,136.4,310.6,136.2,310.5,136.1C310.5,136.1,310.5,136.1,310.5,136.1z"></path><path class="st4" d="M313.9,142.6c-0.9,1-2.2,1.5-3.5,1.5c-0.2,0-0.3,0.1-0.3,0.3c0,0.2,0.1,0.3,0.3,0.3c1.5,0.1,2.9-0.5,3.9-1.6
		C314.5,142.7,314.1,142.3,313.9,142.6z"></path><path class="st10" d="M293.4,204.6c0,0,33.3,11.6,48-4.4l-2.4,13.1C323.4,219,305.9,215.7,293.4,204.6z"></path><path class="st4" d="M320.2,181.2c-4.4,3.6-11,3.4-16.5,3.3c-6.1-0.1-12.1-0.9-18.1-2.2c-1.2-0.3-1.8,1.6-0.5,1.9
		c6.9,1.6,13.9,2.4,21,2.3c5.4-0.1,11-0.4,15.4-3.9C322.6,181.8,321.2,180.4,320.2,181.2z"></path><path class="st4" d="M295.4,168.4l-1.1,15.4c-0.1,1.3,1.9,1.3,2,0l1-15.4C297.5,167.1,295.5,167.1,295.4,168.4z"></path></g><g id="Bar_Chart"><path class="st5" d="M108,333l43-23.7c1.7-0.9,2.8-2.6,2.8-4.6v-78.9c0-2.9-2.4-5.3-5.3-5.3c0,0,0,0,0,0c-0.9,0-1.8,0.2-2.6,0.7
		l-43,24.9c-1.6,0.9-2.6,2.7-2.6,4.6v77.7c0.1,2.9,2.4,5.2,5.3,5.2C106.5,333.6,107.3,333.4,108,333z"></path><path class="st4" d="M110.6,278v18.9c0,5.5,8.5,5.5,8.5,0V278C119.1,272.5,110.6,272.5,110.6,278z"></path><path class="st6" d="M122.2,258.6v30.5c0,5.5,8.5,5.5,8.5,0v-30.5C130.7,253.1,122.2,253.1,122.2,258.6z"></path><path class="st7" d="M135.9,236.5v46.8c0,5.5,8.5,5.5,8.5,0v-46.8C144.5,231,135.9,231,135.9,236.5z"></path><path class="st7" d="M125.3,302.2l-10.5,5.5c-1.5,0.8-0.2,3,1.3,2.3l10.6-5.5C128.2,303.6,126.8,301.4,125.3,302.2z"></path><path class="st7" d="M143.8,300.8c-9.8,5.3-19.7,10.3-29.7,15.2c-1.5,0.7-0.2,3,1.3,2.3c10-4.9,19.9-9.9,29.7-15.2
		C146.6,302.2,145.3,300,143.8,300.8z"></path></g></svg>