<svg transform="scale(1)" version="1.1" id="Layer_1" xmlns="http://www.w3.org/2000/svg" xmlns:xlink="http://www.w3.org/1999/xlink" x="0px" y="0px" viewBox="0 0 500 500" xml:space="preserve" class="show_show__wrapper__graphic__5Waiy "><title>React</title><style type="text/css">
	.st0{fill:#3b82f6;}
	.st1{fill:#ed8d68;}
	.st2{fill:#262626;}
	.st3{fill:#2C9135;}
	.st4{fill:#156819;}
	.st5{opacity:0.46;fill:url(#SVGID_1_);enable-background:new    ;}
	.st6{fill:#a855f7;}
	.st7{opacity:0.2;fill:#F6F7F2;enable-background:new    ;}
	.st8{fill:#FFEACB;}
	.st9{fill:url(#SVGID_00000041296694157853229530000007993483261638317988_);}
	.st10{fill:#F6F7F2;}
	.st11{fill:url(#SVGID_00000026884966216903273710000002726672423933241243_);}
	.st12{fill:#767676;}
	.st13{fill:url(#SVGID_00000164511354392032564680000013558304823003018150_);}
	.st14{fill:url(#SVGID_00000160150735573578075240000014380483834052578218_);}
	.st15{fill:url(#SVGID_00000005263654022900400990000012827240950305574583_);}
	.st16{fill:url(#SVGID_00000067222079822497719820000016336116512340892841_);}
	.st17{fill:url(#SVGID_00000039093108686882528750000007146165307093645236_);}
	.st18{fill:url(#SVGID_00000119094407475283572830000010685419519239070115_);}
	.st19{fill:url(#SVGID_00000156558673173890493160000006604833020701392256_);}
	.st20{fill:url(#SVGID_00000006674603517359634650000015005288702482153912_);}
	.st21{fill:url(#SVGID_00000182487079161413009920000014815474375397480123_);}
	.st22{fill:url(#SVGID_00000101092026116657297680000016646787941679265429_);}
	.st23{fill:url(#SVGID_00000183939663150821383050000010190930737103083450_);}
	.st24{fill:url(#SVGID_00000072271639411859638600000006573268504708414631_);}
	.st25{fill:#3b82f6;}
	.st26{opacity:0.46;fill:url(#SVGID_00000011744608128748185940000011729711724129434243_);enable-background:new    ;}
	.st27{opacity:0.46;fill:url(#SVGID_00000009574923878361679790000001914128085545364372_);enable-background:new    ;}
	.st28{opacity:0.46;fill:url(#SVGID_00000044146971301190958820000017597191216732840846_);enable-background:new    ;}
</style><g id="park"><path class="st0" d="M257,432.1l219.7-129.8c7-3.9,13-10.4,6.2-14.6l-220.5-127c-3.3-2.1-8.3-3.4-11.7-1.4L20.1,293
		c-7,4.1-8.2,15.4-1.2,19.5L228,431.9C236.9,437.1,248,437.2,257,432.1z"></path><polygon class="st1" points="94.2,250 337.6,385.7 405.6,345.5 164.2,209.4 	"></polygon><rect class="st2" x="202.3" y="186.4" transform="matrix(0.4831 -0.8755 0.8755 0.4831 -179.7402 346.6782)" width="3" height="278.3"></rect><rect class="st2" x="293.8" y="129.8" transform="matrix(0.4831 -0.8755 0.8755 0.4831 -82.8898 397.5733)" width="3" height="278.3"></rect></g><g id="plants"><path class="st1" d="M229.9,161.4h1.8c1,0,1.9,0.8,1.9,1.9v32.8c0,1-0.8,1.9-1.9,1.9h-1.8c-1,0-1.9-0.8-1.9-1.9v-32.8
		C228.1,162.2,228.9,161.4,229.9,161.4z"></path><path class="st3" d="M244.5,168.9c-1.3-5.5-6.9-29.8-16.9-22.7c-5.1,3.7-6.6,9.4-8.6,15c-1.9,4.6-2.9,9.5-3.2,14.5
		c-0.2,10.1,10.1,11.4,18,11.3c4.6,0,11-2.7,12.1-7.6c0.6-3-0.4-6.5-1.1-9.4L244.5,168.9z"></path><path class="st4" d="M244.9,169.9l-0.2-1.1c-1.1-4.9-5.7-24.5-13.6-24c2.4,10.3,5.9,21.2,4,31.8c-0.6,3.7-2,7.2-4.2,10.2
		c1,0.1,2.1,0.1,3.1,0.1c4.6,0,11-2.7,12.1-7.6C246.7,176.4,245.6,172.8,244.9,169.9z"></path><path class="st1" d="M270.7,186.1h1.8c1,0,1.9,0.8,1.9,1.9v32.8c0,1-0.8,1.9-1.9,1.9h-1.8c-1,0-1.9-0.8-1.9-1.9v-32.8
		C268.8,186.9,269.6,186.1,270.7,186.1z"></path><path class="st3" d="M285.2,193.5c-1.3-5.5-6.9-29.8-16.9-22.7c-5.1,3.7-6.6,9.4-8.6,15c-1.9,4.6-2.9,9.5-3.2,14.5
		c-0.2,10.1,10.1,11.4,18,11.3c4.5,0,11-2.7,12.1-7.6c0.6-3-0.5-6.5-1.1-9.4L285.2,193.5z"></path><path class="st4" d="M285.7,194.6l-0.2-1.1c-1.1-4.9-5.7-24.5-13.6-24c2.4,10.3,5.9,21.2,4,31.8c-0.6,3.7-2,7.2-4.2,10.2
		c1.1,0.1,2.1,0.1,3.1,0.1c4.5,0,11-2.7,12.1-7.6C287.4,201,286.3,197.5,285.7,194.6z"></path><path class="st1" d="M313.9,210.1h1.8c1,0,1.9,0.8,1.9,1.9v32.8c0,1-0.8,1.9-1.9,1.9h-1.8c-1,0-1.9-0.8-1.9-1.9V212
		C312.1,211,312.9,210.1,313.9,210.1z"></path><path class="st3" d="M328.5,217.6c-1.3-5.5-6.9-29.8-16.9-22.7c-5.1,3.7-6.6,9.4-8.6,15c-1.9,4.6-2.9,9.5-3.2,14.5
		c-0.2,10.1,10.1,11.4,18,11.3c4.5,0,11-2.7,12.1-7.6c0.6-3-0.5-6.5-1.1-9.4C328.6,218.4,328.5,218,328.5,217.6z"></path><path class="st4" d="M328.9,218.7c-0.1-0.4-0.2-0.7-0.2-1.1c-1.1-4.9-5.7-24.5-13.6-24c2.4,10.3,5.9,21.2,4,31.8
		c-0.6,3.7-2,7.2-4.2,10.2c1.1,0.1,2.1,0.1,3.1,0.1c4.5,0,11-2.7,12.1-7.6C330.7,225.1,329.6,221.6,328.9,218.7z"></path><path class="st1" d="M353.7,233.6h1.8c1,0,1.9,0.8,1.9,1.9v32.8c0,1-0.8,1.9-1.9,1.9h-1.8c-1,0-1.9-0.8-1.9-1.9v-32.8
		C351.8,234.5,352.6,233.6,353.7,233.6z"></path><path class="st3" d="M368.2,241.1c-1.3-5.5-6.9-29.8-16.9-22.7c-5.1,3.7-6.6,9.4-8.6,15c-1.9,4.6-2.9,9.5-3.2,14.5
		c-0.2,10.1,10.1,11.3,18,11.3c4.5,0,11-2.7,12.1-7.6c0.6-3-0.5-6.5-1.1-9.4L368.2,241.1z"></path><path class="st4" d="M368.7,242.2l-0.2-1.1c-1.1-4.9-5.7-24.5-13.6-24c2.4,10.3,5.9,21.2,4,31.8c-0.6,3.7-2,7.2-4.2,10.2
		c1,0,2.1,0.1,3.1,0.1c4.5,0,11-2.7,12.1-7.6C370.4,248.6,369.3,245.1,368.7,242.2z"></path><path class="st1" d="M397.9,260.2h1.8c1,0,1.9,0.8,1.9,1.9v32.8c0,1-0.8,1.9-1.9,1.9h-1.8c-1,0-1.9-0.8-1.9-1.9v-32.8
		C396,261,396.8,260.2,397.9,260.2z"></path><path class="st3" d="M412.4,267.7c-1.3-5.5-6.9-29.8-16.9-22.7c-5.1,3.7-6.6,9.4-8.6,15c-1.9,4.6-2.9,9.5-3.2,14.5
		c-0.2,10.1,10.1,11.4,18,11.3c4.5,0,11-2.7,12.1-7.6c0.6-3-0.5-6.5-1.1-9.4L412.4,267.7z"></path><path class="st4" d="M412.9,268.7l-0.2-1.1c-1.1-4.9-5.7-24.5-13.6-24c2.4,10.3,5.9,21.2,4,31.8c-0.6,3.7-2,7.2-4.2,10.2
		c1.1,0.1,2.1,0.1,3.1,0.1c4.5,0,11-2.7,12.1-7.6C414.6,275.2,413.5,271.6,412.9,268.7z"></path><path class="st1" d="M437.7,280h1.8c1,0,1.9,0.8,1.9,1.9v32.8c0,1-0.8,1.9-1.9,1.9h-1.8c-1,0-1.9-0.8-1.9-1.9v-32.8
		C435.8,280.9,436.6,280,437.7,280z"></path><path class="st3" d="M452.2,287.5c-1.3-5.5-6.9-29.9-16.9-22.7c-5.1,3.7-6.6,9.4-8.6,15c-1.9,4.6-2.9,9.5-3.2,14.5
		c-0.2,10.1,10.1,11.4,18,11.3c4.5,0,11-2.7,12.1-7.6c0.6-3-0.5-6.5-1.1-9.4L452.2,287.5z"></path><path class="st4" d="M452.7,288.6l-0.2-1.1c-1.1-4.9-5.7-24.5-13.6-24c2.4,10.3,5.9,21.2,4,31.8c-0.6,3.7-2,7.2-4.2,10.2
		c1,0,2.1,0.1,3.1,0.1c4.5,0,11-2.7,12.1-7.6C454.4,295,453.3,291.5,452.7,288.6z"></path><path class="st1" d="M120.6,305.5h1.8c1,0,1.9,0.8,1.9,1.9v32.8c0,1-0.8,1.9-1.9,1.9h-1.8c-1,0-1.9-0.8-1.9-1.9v-32.8
		C118.7,306.3,119.5,305.5,120.6,305.5z"></path><path class="st3" d="M135.1,313c-1.3-5.5-6.9-29.9-16.9-22.7c-5.1,3.7-6.6,9.4-8.6,15c-1.9,4.6-2.9,9.5-3.2,14.5
		c-0.2,10.1,10.1,11.4,18,11.3c4.5,0,11-2.7,12.1-7.6c0.6-3-0.4-6.5-1.1-9.4L135.1,313z"></path><path class="st4" d="M135.6,314l-0.2-1.1c-1.1-4.9-5.7-24.5-13.6-24c2.4,10.3,5.8,21.2,4,31.8c-0.6,3.7-2,7.2-4.2,10.3
		c1.1,0,2.1,0.1,3.1,0.1c4.5,0,11-2.7,12.1-7.6C137.3,320.5,136.2,316.9,135.6,314z"></path><path class="st1" d="M161.3,330.1h1.8c1,0,1.9,0.8,1.9,1.9v32.8c0,1-0.8,1.9-1.9,1.9h-1.8c-1,0-1.9-0.8-1.9-1.9V332
		C159.4,331,160.3,330.1,161.3,330.1z"></path><path class="st3" d="M175.8,337.6c-1.3-5.5-6.9-29.8-16.9-22.7c-5.1,3.7-6.6,9.4-8.6,15c-1.9,4.6-2.9,9.5-3.2,14.5
		c-0.2,10.1,10.1,11.4,18,11.3c4.6,0,11-2.7,12.1-7.6c0.6-3-0.4-6.5-1.1-9.4L175.8,337.6z"></path><path class="st4" d="M176.3,338.7l-0.2-1.1c-1.1-4.9-5.7-24.5-13.6-24c2.4,10.3,5.9,21.2,4,31.8c-0.6,3.7-2,7.2-4.2,10.2
		c1.1,0,2.1,0.1,3.1,0.1c4.6,0,11-2.7,12.1-7.6C178,345.1,176.9,341.6,176.3,338.7z"></path><path class="st1" d="M204.6,354.2h1.8c1,0,1.9,0.8,1.9,1.9V389c0,1-0.8,1.9-1.9,1.9h-1.8c-1,0-1.9-0.8-1.9-1.9v-32.8
		C202.7,355.1,203.5,354.2,204.6,354.2z"></path><path class="st3" d="M219.1,361.7c-1.3-5.5-6.9-29.8-16.9-22.7c-5.1,3.7-6.6,9.4-8.6,15c-1.9,4.6-2.9,9.5-3.2,14.5
		c-0.2,10.1,10.1,11.4,18,11.3c4.5,0,11-2.7,12.1-7.6c0.6-3-0.4-6.5-1.1-9.4L219.1,361.7z"></path><path class="st4" d="M219.6,362.8l-0.2-1.1c-1.1-4.9-5.7-24.5-13.6-24c2.4,10.3,5.9,21.2,4,31.8c-0.6,3.7-2,7.2-4.2,10.2
		c1.1,0,2.1,0.1,3.1,0.1c4.5,0,11-2.7,12.1-7.6C221.3,369.2,220.2,365.7,219.6,362.8z"></path><path class="st1" d="M244.3,377.7h1.8c1,0,1.9,0.8,1.9,1.9v32.8c0,1-0.8,1.9-1.9,1.9h-1.8c-1,0-1.9-0.8-1.9-1.9v-32.8
		C242.4,378.6,243.3,377.7,244.3,377.7z"></path><path class="st3" d="M258.8,385.2c-1.3-5.5-6.9-29.8-16.9-22.7c-5.1,3.7-6.6,9.4-8.6,15c-1.9,4.6-2.9,9.5-3.2,14.5
		c-0.2,10.1,10.1,11.4,18,11.3c4.5,0,11-2.7,12.1-7.6c0.6-3-0.5-6.5-1.1-9.4L258.8,385.2z"></path><path class="st4" d="M259.3,386.3l-0.2-1.1c-1.1-4.9-5.7-24.5-13.6-24c2.4,10.3,5.9,21.2,4,31.8c-0.6,3.7-2,7.2-4.2,10.2
		c1.1,0,2.1,0.1,3.1,0.1c4.5,0,11-2.7,12.1-7.6C261,392.7,259.9,389.2,259.3,386.3z"></path></g><g id="girl"><linearGradient id="SVGID_1_" gradientUnits="userSpaceOnUse" x1="232.7693" y1="204.5805" x2="205.8693" y2="167.9005" gradientTransform="matrix(1 0 0 -1 0 502)"><stop offset="4.000000e-02" style="stop-color: rgb(38, 38, 38);"></stop><stop offset="1" style="stop-color: rgb(246, 247, 242); stop-opacity: 0;"></stop></linearGradient><path class="st5" d="M186.7,324.3c5,3.6,9.8,7.5,14.8,11.3s19,14.6,24,18c1.6-0.9,4-3.2,5.6-4.2c9.4-5.7,13.6-13.8,22.6-20.1
		c-9.4-9.7-29.2-36.6-35.7-41.3c-9.1,7.8-31.9,20.2-43.2,28.5C178.6,319.2,182.8,321.5,186.7,324.3z"></path><path class="st6" d="M248.7,163.4c-2.6-1.5-5.1-3.3-7.5-5.2c-2.5,4.3-0.7,11.8,0,16.8c0.4-0.3,2.6,0.5,3.1,0.4s1.2-0.4,1.8-0.6
		c0.8-0.3,1.6-0.6,2.4-0.9c1.8-0.8,3.5-1.7,5-2.9c0.2-0.1,0.4-0.3,0.5-0.5c0.1-0.3,0.1-0.5,0-0.8c-0.2-1.3-0.3-2.7-0.3-4
		c0-0.3,0-0.6-0.1-0.9c-0.3-0.7-1.7-0.4-2.3-0.6C250.4,164,249.5,163.8,248.7,163.4z"></path><path class="st1" d="M239.4,118.9c1.2,2.9,1.9,6,3.6,8.6c3.4,4.9,9.9,13.4,6.3,19.7c-1.5,2.6-4.3,3.1-7,3.5l-9.9-23.3"></path><path class="st2" d="M236.1,235.8l0.2-0.3c6.4-14.2,7.2-31,7-46.3c-1.4,0.3-9.4-4.8-10-3.3c-0.7,1.8-2.7,6-4.3,7s6.8,13.2,5.7,14.8
		c-1.4,2.1-1.9,5.2-2.8,7.5c-0.7,2.1-1.5,4.1-2.2,6.2c-1.1,3.2-2.3,6.5-3.5,9.7s-3.2,9.9-0.5,12.8c0.8,0.8,1.8,1.4,2.9,1.6
		c0.6,0.1,1.2,0.1,1.7-0.2c0.3-0.3,0.6-0.6,0.8-1C232.7,241.4,234.4,238.6,236.1,235.8z"></path><path class="st6" d="M232.1,306c1.6-0.2,3.1-0.8,4.3-1.7c3.1-2.4,2.2-5.4,0.4-7.9c-1.4-0.6-2.7-1.4-3.9-2.4
		c-6.4-5.1-10.7-15.3-10.7-15.3l-11.4-2.4L209,294l4.8,1.8l1-5.4l2.4,7.9C217.2,298.3,226.9,304.1,232.1,306z"></path><path class="st6" d="M248.6,332.7c1.3-0.2,2.5-0.6,3.5-1.4c2.5-1.9,1.8-4.4,0.3-6.4c-1.1-0.5-2.2-1.2-3.2-2
		c-5.2-4.1-8.7-12.4-8.7-12.4l-9.2-1.9l-1.5,14.3l3.9,1.4l0.8-4.4l1.9,6.4C236.5,326.4,244.3,331.2,248.6,332.7z"></path><path class="st2" d="M228,258.9c-0.2-1.4-0.6-2.7-1.1-4c-2.3-6.7-4.4-13.4-6.1-20.3c0,0,0,0.1-0.1,0.1c-6.7,13.2-9,27.9-11.1,42.4
		c2.6,1.3,5.4,2.4,8.2,3.3c1.9,0.6,3.8,1.2,5.7,1.6c0.3-0.8,0.5-1.5,0.8-2.2c0.8-2.7,1.4-5.4,2-8.2s1.1-5.6,1.5-8.5
		C228,261.8,228.1,260.3,228,258.9z"></path><path class="st2" d="M239.4,193.9c-0.8,1.6-4.9-3.6-6.6-3.3c-6,0.7-10,2.6-15-1c-1-0.7-3.4-1.1-4.1-2c-6.5,17.6-4.9,45.6,3.7,61.8
		c1.6,3.1,2.9,6.5,3.7,9.9c2.7,11.1,1.8,23.1,3.6,34.4c1.1,6.6,2.9,13.2,4.1,19.8c4.3,0.5,10.6-0.7,12.3-4.2
		c-0.1-0.2-0.1-0.5-0.2-0.7c-0.6-1.6-1.1-3.2-1.5-4.9c-1.4-5.6-1.4-35-0.9-42.1c0.4-6.5-1.5-12.9-2.7-19.2
		c-1.8-8.9-3.4-18.4-1.7-27.4"></path><path class="st7" d="M239.4,193.9c-0.8,1.6-4.9-3.6-6.6-3.3c-6,0.7-10,2.6-15-1c-1-0.7-3.4-1.1-4.1-2c-6.5,17.6-4.9,45.6,3.7,61.8
		c1.6,3.1,2.9,6.5,3.7,9.9c2.7,11.1,1.8,23.1,3.6,34.4c1.1,6.6,2.9,13.2,4.1,19.8c4.3,0.5,10.6-0.7,12.3-4.2
		c-0.1-0.2-0.1-0.5-0.2-0.7c-0.6-1.6-1.1-3.2-1.5-4.9c-1.4-5.6-1.4-35-0.9-42.1c0.4-6.5-1.5-12.9-2.7-19.2
		c-1.8-8.9-3.4-18.4-1.7-27.4"></path><path class="st6" d="M242.9,176.1c-0.3-3.3-0.3-6.6-0.2-9.8c0.3-7.2,1-14.3,1.2-21.5c0.2-2,0.1-4-0.4-5.9c-1-3.4-4.1-4.1-6.7-6
		c-1.7-1.2-2.7-1-4.7-0.7c-2.2,0.3-4.4,0.8-6.6,1.4c-4.3,1.2-8.5,2.9-12.4,5.1c-1.9,1-3.6,2.2-5,3.7c-1.3,1.4-2.1,3.1-2.3,5
		c0.2,0.4,0.5,0.9,0.6,1.4c3.8,11.9,11.6,29.9,5.6,42.5c0.3,0.3,0.6,0.7,1,1c1.9,1.7,4.1,3,6.4,3.8c0.5,0.2,1,0.4,1.5,0.5
		c2.9,0.8,5.9,1.1,8.9,1.1c3.1,0,6.4-0.4,9.1-2.2c0.9-0.6,1.7-1.4,2.4-2.2c0.2-0.2,0.3-0.4,0.5-0.6c0.5-0.6,1-1.3,1.3-2
		c0.6-1.3,0.4-2.8,0.3-4.2C243.4,183.1,243.1,179.6,242.9,176.1z"></path><path class="st8" d="M220,136.4l0.1,0.3c0.1,1.4,0.6,2.8,1.4,4c0.7,0.9,1.6,1.6,2.7,2.1c0.6,0.3,1.2,0.5,1.8,0.7
		c0.8,0.2,1.7,0.4,2.5,0.5c0.4,0,0.8,0,1.2,0.2c0.3,0.2,0.6,0.4,0.8,0.7c0,0.1,0.1,0.1,0.1,0.2c1.2,1.4,2.2,2.8,3.2,4.4
		c0.5,0.8,0.9,1.5,1.4,2.3c0.2,0.4,0.4,0.8,0.6,1.2c0.1,0.2,0.2,0.4,0.3,0.6c0.1,0.1,0.1,0.2,0.2,0.4c0.1,0.1,0.1,0.2,0.1,0.3
		c0-0.3,0.1-0.6,0.1-0.8c0-0.2,0-0.3,0-0.5c0-0.4,0.1-0.9,0.2-1.3c0.1-0.9,0.2-1.8,0.3-2.8c0.2-2,0.2-4,0-6
		c-0.3-2.1-0.7-4.3-1.3-6.3c-0.3-1-0.5-1.9-0.7-2.9c-0.1-0.7,0.1-1.7-0.6-2.1s-2-19.2-3-11.8c-0.3,2.4-3.1,8.7-5,7.2
		c-1.4-1.1-2.7-2.3-3.8-3.7c-0.5,1.7-0.7,3.4-0.8,5.1c-0.1,1.6-0.2,3-1.2,4.2C219.9,133.7,219.7,135.1,220,136.4z"></path><path class="st8" d="M238.2,109.5c0.6,1.6,3.6,18.7-3.2,20s-13.7-5.2-13.7-5.2s-4.1-5.2,1.1-10.4S238.2,109.5,238.2,109.5z"></path><path class="st8" d="M249.6,164.9c0.7-0.7,1.5-1.3,2.4-1.7c0.5-0.3,1.1-0.5,1.6-0.8c0.6-0.3,1.3-0.6,2-0.8c0.7-0.3,1.5-0.2,2.2,0.2
		c0.5,0.4,0.8,1,0.8,1.7c0,0.6,0,1.3,0,1.9c0.1,1.5,0.3,2.9,0.8,4.3c0.2,0.8,0.2,1.6-0.1,2.3c-0.3,0.6-0.8,1.1-1.4,1.3
		c-0.3,0.1-0.6,0.2-0.9,0.3c-0.3,0.1-0.7,0.1-1,0.2c-1.8,0.3-3.7,0.1-5.4-0.7c-1.1-0.6-1.7-1.9-1.4-3.2c0-0.1,0-0.2,0-0.3
		c0-0.1-0.1-0.2-0.1-0.3C248,168,248.6,166.1,249.6,164.9z"></path><linearGradient id="SVGID_00000180343337308551441100000009768659513384469927_" gradientUnits="userSpaceOnUse" x1="239.13" y1="333.021" x2="249.73" y2="333.021" gradientTransform="matrix(-1 0 0 -1 497.3 502)"><stop offset="0" style="stop-color: rgb(246, 247, 242);"></stop><stop offset="0.25" style="stop-color: rgb(246, 247, 242);"></stop><stop offset="0.36" style="stop-color: rgb(246, 247, 242);"></stop><stop offset="1" style="stop-color: rgb(246, 247, 242);"></stop></linearGradient><path d="M247.6,161.1l0.4,5.3l0.5,6.8l0.1,1.2
		c0.1,0.8,0.5,1.5,1.3,1.8c1.9,1,4.1,1,6,0c0.7-0.3,1.2-1,1.3-1.8l0.1-1.3l0.5-6.8l0.4-5L247.6,161.1z" style="fill: url(&quot;#SVGID_00000180343337308551441100000009768659513384469927_&quot;);"></path><g><path class="st10" d="M248,166.3l0.5,6.8c0.3,0.5,0.6,0.8,1.1,1.1c2,1.1,4.5,1.1,6.5,0c0.5-0.3,0.9-0.7,1.1-1.1l0.5-6.8
			c-0.3,0.6-0.8,1.1-1.3,1.4c-2.2,1.2-5,1.2-7.2,0C248.7,167.3,248.3,166.9,248,166.3z"></path></g><path class="st10" d="M247.6,161.1l0.2,2.6c0.2,0.2,0.4,0.4,0.7,0.5c2.7,1.5,6,1.5,8.8,0c0.3-0.2,0.5-0.3,0.8-0.6l0.2-2.4
		L247.6,161.1z"></path><path class="st10" d="M249.1,163.4c2.3,1.3,5.1,1.3,7.5,0c2.1-1.3,2.1-3.4,0.1-4.8c-2.3-1.3-5.2-1.3-7.6,0
		C247,160,247,162.1,249.1,163.4z"></path><linearGradient id="SVGID_00000065057278115621777780000012719894393981418913_" gradientUnits="userSpaceOnUse" x1="238.25" y1="340.872" x2="250.6336" y2="340.872" gradientTransform="matrix(-1 0 0 -1 497.3 502)"><stop offset="0" style="stop-color: rgb(38, 38, 38);"></stop><stop offset="1" style="stop-color: rgb(38, 38, 38);"></stop></linearGradient><path d="M246.7,160.8c0.2-1,0.9-1.9,1.8-2.3
		c2.7-1.5,6-1.5,8.8,0c0.9,0.5,1.6,1.3,1.8,2.4l0,0v0.4c-0.2,1.1-0.8,2-1.8,2.5c-2.7,1.5-6,1.5-8.8,0c-1-0.5-1.7-1.4-1.8-2.5l0,0
		v-0.1c0,0,0-0.1,0-0.1L246.7,160.8L246.7,160.8z" style="fill: url(&quot;#SVGID_00000065057278115621777780000012719894393981418913_&quot;);"></path><path class="st12" d="M248.5,163.4c2.7,1.5,6,1.5,8.8,0c2.4-1.5,2.4-3.8,0-5.3c-2.7-1.5-6-1.5-8.8,0
		C246.1,159.6,246.1,162,248.5,163.4z"></path><linearGradient id="SVGID_00000016039009806866389450000007842031061538937730_" gradientUnits="userSpaceOnUse" x1="238.58" y1="341.115" x2="250.3" y2="341.115" gradientTransform="matrix(-1 0 0 -1 497.3 502)"><stop offset="0" style="stop-color: rgb(38, 38, 38);"></stop><stop offset="1" style="stop-color: rgb(38, 38, 38);"></stop></linearGradient><path d="M247,160.6c0.2-1,0.8-1.8,1.7-2.2
		c2.6-1.4,5.7-1.4,8.3,0c0.9,0.4,1.5,1.3,1.7,2.2l0,0v0.4c-0.1,1-0.8,1.9-1.7,2.4c-2.6,1.4-5.7,1.4-8.3,0c-0.9-0.5-1.5-1.4-1.7-2.4
		l0,0V160.6L247,160.6z" style="fill: url(&quot;#SVGID_00000016039009806866389450000007842031061538937730_&quot;);"></path><path class="st10" d="M248.7,163c2.6,1.4,5.7,1.4,8.3,0c2.3-1.4,2.3-3.6,0-5c-2.6-1.4-5.7-1.4-8.3,0
		C246.4,159.4,246.4,161.7,248.7,163z"></path><linearGradient id="SVGID_00000112596954734019849740000014009695453142971265_" gradientUnits="userSpaceOnUse" x1="238.25" y1="341.572" x2="250.6336" y2="341.572" gradientTransform="matrix(-1 0 0 -1 497.3 502)"><stop offset="0" style="stop-color: rgb(38, 38, 38);"></stop><stop offset="1" style="stop-color: rgb(38, 38, 38);"></stop></linearGradient><path d="M246.7,160.1c0.2-1,0.9-1.9,1.8-2.3
		c2.7-1.5,6-1.5,8.8,0c0.9,0.5,1.6,1.3,1.8,2.4l0,0v0.4c-0.2,1.1-0.8,2-1.8,2.5c-2.7,1.5-6,1.5-8.8,0c-1-0.5-1.7-1.4-1.8-2.5l0,0
		v-0.1c0,0,0-0.1,0-0.1L246.7,160.1L246.7,160.1z" style="fill: url(&quot;#SVGID_00000112596954734019849740000014009695453142971265_&quot;);"></path><path class="st12" d="M246.8,161c0.3,0.7,0.9,1.4,1.6,1.8c2.7,1.5,6,1.5,8.8,0c2.4-1.5,2.4-3.8,0-5.3c-0.2-0.1-0.4-0.2-0.6-0.3
		c-2.6-1.1-5.6-1-8.1,0.3C246.9,158.4,246.4,159.7,246.8,161z"></path><path class="st12" d="M246.8,161l1.7,1l8.1-4.9c-2.6-1.1-5.6-1-8.1,0.3C246.9,158.4,246.4,159.7,246.8,161z"></path><linearGradient id="SVGID_00000072256676809140889520000006271999627628330934_" gradientUnits="userSpaceOnUse" x1="238.64" y1="342.335" x2="250.24" y2="342.335" gradientTransform="matrix(-1 0 0 -1 497.3 502)"><stop offset="0" style="stop-color: rgb(38, 38, 38);"></stop><stop offset="1" style="stop-color: rgb(38, 38, 38);"></stop></linearGradient><path d="M247.1,159.4L247.1,159.4L247.1,159.4
		v-0.2l0.1-0.7h0.2c0.3-0.5,0.8-1,1.4-1.3c2.6-1.4,5.6-1.4,8.2,0c0.5,0.3,0.9,0.7,1.3,1.1h0.2l0.2,0.9c0.1,1.2-0.6,2.4-1.7,2.9
		c-2.6,1.4-5.6,1.4-8.2,0C247.7,161.6,247,160.5,247.1,159.4z" style="fill: url(&quot;#SVGID_00000072256676809140889520000006271999627628330934_&quot;);"></path><path class="st12" d="M248.9,160.9c2.5,1.3,5.5,1.3,8,0c2.2-1.3,2.2-3.5,0-4.8c-2.5-1.3-5.5-1.3-7.9,0
		C246.7,157.4,246.7,159.6,248.9,160.9z"></path><path class="st2" d="M255.6,160.8l0.3,0.2l0.1,0.1c0.1,0,0.1,0,0.2,0l0.1-0.1l0.8-0.5l0.3-0.2c0,0,0-0.1,0-0.1l-0.4-0.2
		c-0.1,0-0.1,0-0.2,0L255.6,160.8L255.6,160.8z"></path><path class="st2" d="M255.6,160.8L255.6,160.8l1.1-0.6c0.1,0,0.1,0,0.2,0l0.3,0.2h0.1c0,0,0-0.1,0-0.1l-0.4-0.2c-0.1,0-0.1,0-0.2,0
		L255.6,160.8L255.6,160.8z"></path><path class="st12" d="M252.8,161c1.1,0,2.3-0.3,3.3-0.8c0.7-0.3,1.1-0.9,1.2-1.7c-0.1-0.7-0.5-1.3-1.2-1.6c-1-0.6-2.1-0.8-3.2-0.8
		c-1.1,0-2.3,0.3-3.3,0.8c-0.7,0.3-1.1,0.9-1.2,1.7c0.1,0.7,0.5,1.3,1.2,1.6C250.6,160.8,251.7,161,252.8,161z"></path><path class="st2" d="M251.2,160.8c0.5,0.1,1,0.2,1.6,0.2c1.1,0,2.3-0.3,3.3-0.8c0.7-0.3,1.1-0.9,1.2-1.7c0-0.4-0.2-0.8-0.5-1.1
		L251.2,160.8z"></path><linearGradient id="SVGID_00000083050104140612106160000016694402396882819735_" gradientUnits="userSpaceOnUse" x1="239.98" y1="344.586" x2="248.9" y2="344.586" gradientTransform="matrix(-1 0 0 -1 497.3 502)"><stop offset="0" style="stop-color: rgb(38, 38, 38);"></stop><stop offset="1" style="stop-color: rgb(38, 38, 38);"></stop></linearGradient><path d="M256.1,157.4c-1-0.6-2.1-0.8-3.2-0.8
		c-1.1,0-2.3,0.3-3.3,0.8c-0.6,0.3-1,0.8-1.2,1.4c0-0.1,0-0.2,0-0.3c0.1-0.7,0.5-1.4,1.2-1.7c1-0.6,2.1-0.8,3.3-0.8
		c1.1,0,2.2,0.2,3.2,0.8c0.7,0.3,1.1,0.9,1.2,1.6c0,0.1,0,0.2,0,0.3C257.2,158.1,256.7,157.6,256.1,157.4z" style="fill: url(&quot;#SVGID_00000083050104140612106160000016694402396882819735_&quot;);"></path><linearGradient id="SVGID_00000075125061085509879280000012540875085288501934_" gradientUnits="userSpaceOnUse" x1="239.43" y1="331.7809" x2="249.43" y2="331.7809" gradientTransform="matrix(-1 0 0 -1 497.3 502)"><stop offset="0" style="stop-color: rgb(38, 38, 38);"></stop><stop offset="0.24" style="stop-color: rgb(38, 38, 38);"></stop><stop offset="0.67" style="stop-color: rgb(38, 38, 38);"></stop><stop offset="1" style="stop-color: rgb(38, 38, 38);"></stop></linearGradient><path d="M247.9,165.8l0.4,5.5l0.1,1.3
		c0.3,0.5,0.7,1,1.2,1.3c2,1.1,4.5,1.1,6.5,0c0.5-0.3,1-0.8,1.2-1.3l0.1-1.2l0.4-5.6c-0.3,0.7-0.8,1.3-1.4,1.6c-2.2,1.2-5,1.2-7.2,0
		C248.6,167,248.2,166.4,247.9,165.8z" style="fill: url(&quot;#SVGID_00000075125061085509879280000012540875085288501934_&quot;);"></path><path class="st2" d="M257,159.4c0.2-0.3,0.3-0.6,0.4-0.9c0-0.5-0.3-1-0.8-1.4v0.5C257,158.1,257.1,158.8,257,159.4z"></path><path class="st6" d="M242.3,142.7c-0.1,0.3-0.3,0.3-0.6,0.5c-0.7,0.5-1.3,1.1-1.7,1.8c-0.8,1.4-1.4,2.9-1.9,4.4
		c-0.3,0.8-0.6,1.6-0.9,2.4c-0.1,0.4-0.3,0.8-0.5,1.2c-0.1,0.2-0.5,0.9-0.4,1.1c-0.1-0.6-0.2-1.2-0.2-1.8c0-2.2,0.1-4.5,0.4-6.7
		c0.1-1.1,0.3-2.2,0.8-3.2c0.7-1.4,2-2.5,2.3-4.1c0-0.5,0.1-1,0.4-1.5c0-0.1,0.1-0.1,0.2-0.1c0.1,0,0.2,0.1,0.2,0.1
		c1.2,1.2,1.9,2.8,2,4.5C242.4,141.9,242.4,142.3,242.3,142.7L242.3,142.7z"></path><path class="st6" d="M232.8,149.6c-1.1-0.8-2.4-1.1-3.7-0.9c-1.1,0.2-2.2,0.8-2.9,1.7c-1.1-0.9-2.1-1.9-3.1-3
		c-3.1-3.4-4.5-8-3.9-12.6c0,0.2,0.3,0.7,0.4,0.8c0.2,0.3,0.4,0.6,0.6,0.8c0.4,0.5,0.9,0.9,1.5,1.3c0.5,0.4,1,0.8,1.5,1.2
		s1.3,0.9,1.9,1.4c2.4,1.5,4.9,2.7,7,4.6c2.6,2.3,4.1,5.5,4.2,9c0,0.1,0,0.2,0,0.2C235.5,152.4,234.3,150.9,232.8,149.6z"></path><path class="st8" d="M220,136.4l0.1,0.3c0.4,0.7,0.9,1.5,1.4,2.1c1.3,1.7,2.9,3.2,4.5,4.6c0.8,0.2,1.7,0.4,2.5,0.5
		c0.4,0,0.8,0,1.2,0.2c0.3,0.2,0.6,0.4,0.8,0.7c0,0.1,0.1,0.1,0.1,0.2c1.2,1.4,2.2,2.8,3.2,4.4c0.5,0.8,0.9,1.5,1.4,2.3
		c0.2,0.4,0.4,0.8,0.6,1.2c0.1,0.2,0.2,0.4,0.3,0.6c0.1,0.1,0.1,0.2,0.2,0.4c0.1,0.1,0.1,0.2,0.1,0.3c0-0.3,0.1-0.6,0.1-0.8
		c-0.4-2.8-1.2-5.6-2.6-8.1c-1.8-3.5-4-6.7-5.9-10.1c-0.9-1.4-1.3-3.1-1.4-4.7c0.1-1.2,0-2.4-0.1-3.5c-1.4-1.1-2.7-2.3-3.8-3.7
		c-0.5,1.7-0.7,3.4-0.8,5.1c-0.1,1.6-0.2,3-1.2,4.2C219.9,133.6,219.7,135.1,220,136.4z"></path><path class="st10" d="M239.4,142.3c0.7-0.8,1.8-1.1,2.8-0.7c-0.2-2.2-1-4.2-2.1-6.1c-0.4-0.7-0.9-1.3-1.4-1.8
		c-1.3-1-2.7-1.9-4.2-2.7c-0.2-0.1-0.4-0.2-0.6-0.3c0.7,1.5,1.1,3.2,1.2,4.8c0.2,1.7,0.3,3.4,0.5,5c0.1,1.3,0.2,2.7,0.3,4
		c0.1,1.2,0,2.3,0.1,3.5c0.1,2.1,0.3,4.2,0.6,6.3c-0.2-1.4,0.4-2.6,0.5-3.9c0.2-1.6,0.5-3.3,0.9-4.9c0.2-1.1,0.6-2.2,1.3-3.1
		L239.4,142.3z"></path><path class="st10" d="M228.5,146.6c-0.7,0.7-1.4,1.4-2,2.1c-1.8-2.2-3.5-4.4-5.1-6.7c-1.4-1.8-2.4-3.9-2.9-6.1
		c-0.2-1.3-0.1-2.7,0.4-4c0.2-0.6,0.6-1.3,0.9-1.8c0.3-0.5,0.7-1,1.2-1.4c0.3-0.2,0.7-0.3,1-0.2c-0.1,0.7-0.2,1.5-0.3,2.2
		c-0.1,0.6-0.2,1.2-0.2,1.8c0.2,1.1,0.8,2.2,1.5,3c2.2,2.7,4.7,5.1,7,7.7c1.4,1.6,2.7,3.3,3.9,5.1c1.1,1.9,2,4,2.7,6.1
		c-0.8-1.3-1.5-2.6-2.3-3.8c-0.6-1-1.4-2-2.2-2.8c-0.5-0.6-1.1-1-1.8-1.4C229.4,145.9,229.1,145.9,228.5,146.6z"></path><path class="st8" d="M197,215.7c0,1.6,0.3,3.1,0.9,4.5c0.2,0.9,0.7,1.8,1.4,2.5c0.2,0.1,0.3,0.2,0.5,0.4c0.2,0.2,0.4,0.5,0.5,0.8
		c0.3,0.7,0.8,1.3,1.2,1.9c0.6,0.9,1.6,1.4,2.7,1.3c0,0,0.1,0,0.1,0c0.1,0,0.1-0.1,0.2-0.1c0.1-0.1,0.1-0.1,0.1-0.2
		c0.1-0.5-0.1-0.9-0.4-1.3c-0.3-0.4-0.5-0.7-0.7-1.1c-0.2-0.5-0.2-1.1-0.1-1.7c0.1-0.6,0.1-1.3,0.2-1.9c0.1-0.4,0.2-0.7,0.3-1.1
		c0.1-0.2,0.2-0.4,0.3-0.6c0.1-0.1,0.2-0.3,0.4-0.3s0.2,0.4,0.2,0.6s0,0.5,0,0.7c0,0.6,0.1,1.2,0.1,1.8c0.1,1,0.5,1.9,1.1,2.6
		c0.1,0.1,0.2,0.2,0.3,0.2c0.3,0.1,0.6,0,0.8-0.2c0.2-0.2,0.3-0.5,0.4-0.8c0.1-0.8,0.1-1.6,0-2.4c-0.2-1.6-0.4-3.1-0.6-4.7
		c-0.2-1.5-0.6-3-1.2-4.4c-0.1-0.1-0.1-0.3-0.1-0.4c-0.3-0.7-0.6-1.4-0.9-2.1c-0.2-0.6-0.2-1.3-0.4-1.9c0,0.3-0.9,0.5-1,0.5
		c-0.7,0-1.3-0.1-2-0.2c-0.8-0.1-1.5-0.4-2.2-0.9c-0.5,2.1-1.1,4.2-1.6,6.3C197.2,214.3,197.1,215,197,215.7z"></path><path class="st8" d="M197,215.7c0,1.6,0.3,3.1,0.9,4.5c0.2,0.9,0.7,1.8,1.4,2.5c0.2,0.1,0.3,0.2,0.5,0.4c0.2,0.2,0.4,0.5,0.5,0.8
		c0.3,0.7,0.8,1.3,1.2,1.9c0.6,0.9,1.6,1.4,2.7,1.3c0,0,0.1,0,0.1,0c-0.9-0.7-1.7-1.5-2.3-2.4c-0.4-0.7-0.8-1.5-1.1-2.2
		c-0.5-1.1-0.9-2.2-1.3-3.4c-0.4-1.6-0.4-3.3-0.1-4.9c0-0.2,0.1-0.4,0.2-0.6c0.3-0.3,0.7-0.2,1-0.2c1.8,0.2,3.5-0.4,4.9-1.6
		c-0.3-0.7-0.6-1.4-0.9-2.1c-0.2-0.6-0.2-1.3-0.4-1.9c0,0.3-0.9,0.5-1,0.5c-0.7,0-1.3-0.1-2-0.2c-0.8-0.1-1.5-0.4-2.2-0.9
		c-0.5,2.1-1.1,4.2-1.6,6.3C197.2,214.3,197.1,215,197,215.7z"></path><path class="st6" d="M209.4,183.5c1.8-8.8,4.1-17.4,7-25.9c1.3-3.7,3.1-7.4,0.8-11c-1.2-1.8-3.1-3.9-5.2-4.6
		c-6-1.9-7.8,8.7-8.9,12.6c-2.1,7.2-3.7,14.6-4.6,22c-0.3,2.7-0.6,5.5-0.8,8.3c-0.1,3-0.2,5.9-0.1,8.9c0.1,2.6,0.6,12.5,0.6,14.8
		c0,0.3,0.1,0.6,0.2,0.9c0.1,0.1,0.1,0.2,0.2,0.3c0.1,0.2,0.3,0.3,0.4,0.4c0.8,0.7,1.7,1.1,2.6,1.4c1,0.3,2,0.1,2.9-0.4
		c0.2-0.1,0.3-0.2,0.5-0.4c0.3-0.5,0.2-1.2,0.4-1.8c0.2-0.8,0.3-1.7,0.4-2.6c0.3-1.8,0.5-3.5,0.8-5.3
		C207.2,195.1,208.2,189.3,209.4,183.5z"></path><path class="st8" d="M259.7,162.4c-0.3,0.5-0.6,1-0.9,1.5c0.6,0.2,1,0.7,1.1,1.3c0.1,0.6,0,1.2-0.4,1.7c-0.1,0-0.1,0.1-0.1,0.2
		c0,0.1,0.1,0.1,0.1,0.2c0.3,0.3,0.4,0.7,0.3,1.1c-0.1,0.4-0.2,0.7-0.4,1.1c0,0.1,0,0.1-0.1,0.2c0,0.1,0,0.2,0.1,0.3
		c0.2,0.5,0.3,1.1,0.1,1.6c-0.1,0.5-0.5,1-1,1.2c-0.4,0.2-0.8,0.2-1.3,0.2l-2.1,0.1c-0.4,0-0.8,0-1.2-0.2c-0.1-0.1-0.2-0.1-0.2-0.2
		c0-0.1,0-0.2,0-0.3c0-0.4,0.2-0.9,0.5-1.2c-0.4,0.1-0.8-0.2-0.9-0.6c-0.1-0.4,0-0.8,0.2-1.2c0.2-0.3,0.5-0.6,0.8-0.9
		c-0.3-0.2-0.5-0.5-0.4-0.8c0.2-0.8,0.7-1.4,1.4-1.6c0.7-0.3,1.4-0.6,1.9-1.1c-0.5-0.1-1-0.4-1.1-0.9c0-0.2,0-0.5,0.1-0.7
		c0.3-1,0.9-1.9,1.8-2.6c0.4-0.2,0.9-0.2,1.4,0C260.1,161.2,260,161.8,259.7,162.4z"></path><path class="st8" d="M249.2,166.6c-0.2,0.2-0.4,0.3-0.7,0.4c-0.2,0.1-0.4,0.4-0.4,0.6c0,0.1,0,0.1,0,0.2c0,0.1-0.1,0.1-0.1,0.1
		c0,0-0.1,0-0.1-0.1c-0.2-0.2-0.3-0.4-0.4-0.7c-0.3-0.8-0.5-1.6-0.4-2.4c0-0.3,0.1-0.5,0.3-0.7c0.5-0.3,1.2-0.3,1.8-0.2
		c0.6,0.1,1.1,0.3,0.9,1C249.9,165.5,249.6,166.1,249.2,166.6z"></path><path class="st1" d="M222.1,102.7c-5,2.5-8.9,6.8-11.1,11.9c-1.6,4.5-2.8,9.1-3.6,13.8c-1.6,7.8-2.5,11.1-1.7,19
		c0.7,7,6.1,11.4,11.3,11.4c2.1,0.1,4.1-0.1,6.2-0.5c4-1,6.4-4.5,8-8.1c0.7-1.5,1-3.1,0.9-4.7c-0.3-1.5-1.1-2.9-2.2-3.9
		c-3.4-3.2-7.3-4.4-7.6-9.7c-0.1-4.1,0.8-8.1,2.6-11.7c1.5-3.6,4.8-6.1,8.7-6.4c5.5-0.5,9.1-7.3,3.7-10.8
		C232.4,99.8,226.9,100.3,222.1,102.7z"></path><path class="st8" d="M226.2,121.1c-0.1-1.6-0.7-3-1.7-4.2c-0.7-0.7-1.8-0.8-2.5-0.1c-0.1,0.1-0.2,0.2-0.3,0.4
		c-1.5,2.6,0.9,5.5,3.4,6C225.5,122.5,225.9,121.8,226.2,121.1L226.2,121.1z"></path></g><g id="boy"><linearGradient id="SVGID_00000081618193689401906100000015254288373304091293_" gradientUnits="userSpaceOnUse" x1="155.07" y1="365.831" x2="165.66" y2="365.831" gradientTransform="matrix(-1 0 0 -1 497.3 502)"><stop offset="0" style="stop-color: rgb(246, 247, 242);"></stop><stop offset="0.25" style="stop-color: rgb(246, 247, 242);"></stop><stop offset="0.36" style="stop-color: rgb(246, 247, 242);"></stop><stop offset="1" style="stop-color: rgb(246, 247, 242);"></stop></linearGradient><path d="M331.6,128.2l0.4,5.3l0.5,6.8l0.1,1.2
		c0.1,0.8,0.5,1.5,1.3,1.8c1.9,1,4.1,1,6,0c0.7-0.3,1.2-1,1.3-1.8l0.1-1.3l0.5-6.8l0.4-5L331.6,128.2z" style="fill: url(&quot;#SVGID_00000081618193689401906100000015254288373304091293_&quot;);"></path><g><path class="st10" d="M332,133.5l0.5,6.8c0.3,0.5,0.7,0.8,1.1,1.1c2,1.1,4.5,1.1,6.5,0c0.5-0.3,0.9-0.7,1.1-1.1l0.5-6.8
			c-0.3,0.6-0.8,1.1-1.3,1.4c-2.2,1.2-5,1.2-7.2,0C332.7,134.5,332.3,134.1,332,133.5z"></path></g><path class="st10" d="M331.6,128.2l0.2,2.6c0.2,0.2,0.4,0.4,0.7,0.5c2.7,1.5,6,1.5,8.8,0c0.3-0.2,0.5-0.3,0.8-0.6l0.2-2.4
		L331.6,128.2z"></path><path class="st10" d="M333.2,130.6c2.3,1.3,5.1,1.3,7.5,0c2.1-1.3,2.1-3.4,0.1-4.8c-2.3-1.3-5.2-1.3-7.6,0
		C331.1,127.2,331.1,129.3,333.2,130.6z"></path><linearGradient id="SVGID_00000099655980779469423350000004401850160134246801_" gradientUnits="userSpaceOnUse" x1="154.2" y1="373.707" x2="166.58" y2="373.707" gradientTransform="matrix(-1 0 0 -1 497.3 502)"><stop offset="0" style="stop-color: rgb(38, 38, 38);"></stop><stop offset="1" style="stop-color: rgb(38, 38, 38);"></stop></linearGradient><path d="M330.8,128c0.2-1,0.9-1.9,1.8-2.3
		c2.7-1.5,6-1.5,8.8,0c0.9,0.5,1.6,1.3,1.8,2.3l0,0v0.4c-0.2,1.1-0.8,2-1.8,2.5c-2.7,1.5-6,1.5-8.8,0c-1-0.5-1.7-1.4-1.8-2.5l0,0
		L330.8,128L330.8,128z" style="fill: url(&quot;#SVGID_00000099655980779469423350000004401850160134246801_&quot;);"></path><path class="st12" d="M332.5,130.6c2.7,1.5,6,1.5,8.8,0c2.4-1.5,2.4-3.8,0-5.3c-2.7-1.5-6-1.5-8.8,0
		C330.1,126.8,330.1,129.1,332.5,130.6z"></path><linearGradient id="SVGID_00000103955783384495475350000012697833786287640197_" gradientUnits="userSpaceOnUse" x1="154.52" y1="373.917" x2="166.23" y2="373.917" gradientTransform="matrix(-1 0 0 -1 497.3 502)"><stop offset="0" style="stop-color: rgb(38, 38, 38);"></stop><stop offset="1" style="stop-color: rgb(38, 38, 38);"></stop></linearGradient><path d="M331.1,127.8c0.2-1,0.8-1.8,1.7-2.2
		c2.6-1.4,5.7-1.4,8.3,0c0.9,0.4,1.5,1.3,1.7,2.2l0,0v0.4c-0.1,1-0.8,1.9-1.7,2.4c-2.6,1.4-5.7,1.4-8.3,0c-0.9-0.5-1.6-1.4-1.7-2.4
		l0,0L331.1,127.8L331.1,127.8z" style="fill: url(&quot;#SVGID_00000103955783384495475350000012697833786287640197_&quot;);"></path><path class="st10" d="M332.8,130.2c2.6,1.4,5.7,1.4,8.3,0c2.3-1.4,2.3-3.6,0-5c-2.6-1.4-5.7-1.4-8.3,0
		C330.5,126.6,330.5,128.9,332.8,130.2z"></path><linearGradient id="SVGID_00000121986888925433275610000012715078115180627595_" gradientUnits="userSpaceOnUse" x1="154.2" y1="374.378" x2="166.58" y2="374.378" gradientTransform="matrix(-1 0 0 -1 497.3 502)"><stop offset="0" style="stop-color: rgb(38, 38, 38);"></stop><stop offset="1" style="stop-color: rgb(38, 38, 38);"></stop></linearGradient><path d="M330.8,127.3c0.2-1,0.9-1.9,1.8-2.3
		c2.7-1.5,6-1.5,8.8,0c0.9,0.5,1.6,1.4,1.8,2.4l0,0v0.4c-0.2,1.1-0.8,2-1.8,2.5c-2.7,1.5-6,1.5-8.8,0c-1-0.5-1.7-1.4-1.8-2.5l0,0
		L330.8,127.3L330.8,127.3z" style="fill: url(&quot;#SVGID_00000121986888925433275610000012715078115180627595_&quot;);"></path><path class="st12" d="M330.9,128.1c0.3,0.7,0.9,1.4,1.6,1.8c2.7,1.5,6,1.5,8.8,0c2.4-1.5,2.4-3.8,0-5.3c-0.2-0.1-0.4-0.2-0.6-0.3
		c-2.6-1.1-5.6-1-8.1,0.3C331,125.6,330.4,126.9,330.9,128.1z"></path><path class="st12" d="M330.9,128.1l1.7,1l8.1-4.9c-2.6-1.1-5.6-1-8.1,0.3C331,125.6,330.4,126.9,330.9,128.1z"></path><linearGradient id="SVGID_00000072259806917977244830000004193740380995256467_" gradientUnits="userSpaceOnUse" x1="154.58" y1="375.147" x2="166.17" y2="375.147" gradientTransform="matrix(-1 0 0 -1 497.3 502)"><stop offset="0" style="stop-color: rgb(38, 38, 38);"></stop><stop offset="1" style="stop-color: rgb(38, 38, 38);"></stop></linearGradient><path d="M331.1,126.6L331.1,126.6L331.1,126.6
		v-0.2l0.1-0.7h0.2c0.3-0.5,0.8-1,1.4-1.3c2.6-1.4,5.6-1.4,8.2,0c0.5,0.3,0.9,0.7,1.3,1.1h0.2l0.2,0.9c0.1,1.2-0.6,2.4-1.7,2.9
		c-2.6,1.4-5.6,1.4-8.2,0C331.7,128.8,331.1,127.7,331.1,126.6z" style="fill: url(&quot;#SVGID_00000072259806917977244830000004193740380995256467_&quot;);"></path><path class="st12" d="M332.9,128.1c2.5,1.3,5.5,1.3,8,0c2.2-1.3,2.2-3.5,0-4.8c-2.5-1.3-5.5-1.3-7.9,0
		C330.8,124.6,330.8,126.8,332.9,128.1z"></path><path class="st2" d="M339.7,128l0.3,0.2l0.1,0.1c0.1,0,0.1,0,0.2,0l0.1-0.1l0.8-0.5l0.3-0.2 M341.4,127.5l-0.4-0.2
		c-0.1,0-0.1,0-0.2,0l-1.1,0.7c0,0,0,0.1,0,0.1L341.4,127.5z"></path><path class="st2" d="M339.7,128L339.7,128l1.1-0.6c0.1,0,0.1,0,0.2,0l0.3,0.2h0.1 M341.4,127.5l-0.4-0.2c-0.1,0-0.1,0-0.2,0
		l-1.1,0.7c0,0,0,0,0,0L341.4,127.5z"></path><path class="st12" d="M336.9,128.2c1.1,0,2.3-0.3,3.3-0.8c0.9-0.3,1.4-1.3,1.1-2.2c-0.2-0.5-0.6-1-1.1-1.1c-1-0.6-2.1-0.8-3.2-0.8
		c-1.1,0-2.3,0.3-3.3,0.8c-0.7,0.3-1.1,0.9-1.2,1.7c0.1,0.7,0.5,1.3,1.2,1.7C334.6,127.9,335.7,128.2,336.9,128.2z"></path><path class="st2" d="M335.3,128c0.5,0.1,1,0.2,1.6,0.2c1.1,0,2.3-0.3,3.3-0.8c0.7-0.3,1.1-0.9,1.2-1.7c0-0.4-0.2-0.8-0.5-1.1
		L335.3,128z"></path><linearGradient id="SVGID_00000147182303574085643470000018057852371489595813_" gradientUnits="userSpaceOnUse" x1="155.92" y1="377.3959" x2="164.84" y2="377.3959" gradientTransform="matrix(-1 0 0 -1 497.3 502)"><stop offset="0" style="stop-color: rgb(38, 38, 38);"></stop><stop offset="1" style="stop-color: rgb(38, 38, 38);"></stop></linearGradient><path d="M340.2,124.6c-1-0.5-2.1-0.8-3.2-0.8
		c-1.1,0-2.3,0.3-3.3,0.8c-0.6,0.3-1,0.8-1.2,1.4c0-0.1,0-0.2,0-0.3c0.1-0.7,0.5-1.4,1.2-1.7c1-0.6,2.1-0.8,3.3-0.8
		c1.1,0,2.3,0.2,3.2,0.8c0.7,0.3,1.1,0.9,1.2,1.7c0,0.1,0,0.2,0,0.3C341.2,125.3,340.8,124.8,340.2,124.6z" style="fill: url(&quot;#SVGID_00000147182303574085643470000018057852371489595813_&quot;);"></path><linearGradient id="SVGID_00000030451313113970885390000002449859417922246589_" gradientUnits="userSpaceOnUse" x1="155.36" y1="364.5731" x2="165.36" y2="364.5731" gradientTransform="matrix(-1 0 0 -1 497.3 502)"><stop offset="0" style="stop-color: rgb(38, 38, 38);"></stop><stop offset="0.24" style="stop-color: rgb(38, 38, 38);"></stop><stop offset="0.67" style="stop-color: rgb(38, 38, 38);"></stop><stop offset="1" style="stop-color: rgb(38, 38, 38);"></stop></linearGradient><path d="M331.9,133l0.4,5.5l0.1,1.3
		c0.3,0.5,0.7,1,1.2,1.3c2,1.1,4.5,1.1,6.5,0c0.5-0.3,1-0.8,1.2-1.3l0.1-1.2l0.5-5.6c-0.3,0.7-0.8,1.3-1.4,1.6c-2.2,1.2-5,1.2-7.2,0
		C332.7,134.2,332.2,133.6,331.9,133z" style="fill: url(&quot;#SVGID_00000030451313113970885390000002449859417922246589_&quot;);"></path><path class="st2" d="M341,126.6c0.2-0.3,0.3-0.6,0.4-0.9c0-0.5-0.3-1-0.8-1.3v0.5C341,125.3,341.1,126,341,126.6z"></path><path class="st2" d="M267.5,130.9c0-0.4-3.4,3.6-4.1,7.3s0.8,14.4,2,15.6s7,2.8,7,2.8"></path><path class="st2" d="M292.8,103.6c2.2,8.2,4.2,16.5,6.3,24.8c0.7,2.1,0.9,4.2,0.7,6.4c-0.4,2.8-2.3,5.1-4.1,7.2
		c-4.5,5.3-9.4,10.2-14.7,14.7c-1.2,1.2-2.6,2-4.2,2.5c-1.5,0.2-3,0.1-4.5-0.3c-0.8-0.1-1.6-0.4-2.3-1c-0.8-0.9-1.2-2.1-1.2-3.3
		c-1.2-10.5-1.1-21.2-1.4-31.8c-0.1-3.6-0.2-7.2,1.2-10.5c1.6-3.2,4.3-5.8,7.5-7.2c5.4-2.5,10.8-5.1,17.1-6.3"></path><path class="st8" d="M328,135c3-1.6,4.5-4.6,7.2-6.5c0.1,0,0.1-0.1,0.2-0.1l0.2-0.1c1-0.2,2,0.4,2.2,1.4c0.1,0.4,0,0.9-0.2,1.3
		c-0.7,1.4-1.9,2.5-3.3,3.1c-0.2,0.4-0.6,0.7-1.1,0.8c-1.7,0.4-3.3,1-4.9,1.7c-0.9,0.5-2,0.2-2.5-0.6c-0.2-0.4-0.3-0.9-0.2-1.4
		C326.4,135.3,327.3,135.4,328,135z"></path><path class="st8" d="M327.9,140.3L327.9,140.3c1.1-2.5,2-5.1,3-7.6c0.6-0.6,1.2-1.3,1.8-2c0.1,0,0.3,0,0.4,0c0.9,0,1.7,0.8,1.7,1.7
		c0,0.2,0,0.3-0.1,0.5l-0.2,0.6c0.2,0.5,0.1,1-0.1,1.4c-0.8,1.6-1.5,3.2-2.3,4.8c-0.3,0.8-0.6,1.6-1.1,2.2l-0.5,1
		c-1,2.1-4.1,0.3-3.1-1.8L327.9,140.3z"></path><path class="st25" d="M330.5,128.6L330.5,128.6c-1.2,0.6-2.3,1.1-3.4,1.6c-4.3,1.7-10.5,2.4-13.3-2.1c-0.6-1-1.1-2-1.4-3.1
		c-0.1-0.2-0.2-0.5-0.2-0.7c-1.5-5.3-3.1-11.3-6.3-15.7l-10.1,32.2c2.3,6.6,10.9,8.5,17.1,8.8c5.4,0.2,10.8-0.7,15.9-2.5
		C331,141.3,330.9,134.8,330.5,128.6z"></path><path class="st2" d="M307.2,117.3c1,8.3,0,17.2,3.5,25c1.1,2.5,2.6,4.8,4.5,6.9l0.3,0.3c-7.4-0.2-10.2-1.2-10.2-1.2l1.2-36.6
		c0.2,0.7,0.7,2.2,1.3,4.3C307.3,116.3,307.2,116.8,307.2,117.3z"></path><path class="st8" d="M340,137.8l0.5-0.2c-0.8-0.4-1.1-1.3-0.7-2c0.1-0.3,0.4-0.5,0.6-0.7l1.1-0.6c-0.7-0.2-1.1-0.9-1.1-1.6
		c0.1-1.2,2.4-2.5,3.5-1.8c0.7,0.5,0.9,1.4,0.5,2.1l-0.3,0.3c0.8,0.2,1.3,1.1,1.1,1.9c-0.1,0.4-0.4,0.7-0.7,0.9l-0.2,0.1
		c0.7,0.4,1,1.3,0.7,2c-0.1,0.3-0.4,0.5-0.7,0.7c-0.9,0.6-1.8,1.1-2.8,1.5c-0.7,0.4-1.6,0.1-2-0.6C339,139.1,339.3,138.2,340,137.8z
		"></path><path class="st8" d="M317.1,275.1c-0.5,4.8-1.1,9.6-0.4,14.4c0.1,1,0.3,2.1,0.5,3.3l-12.2-2.1v-15.6H317.1z"></path><path class="st2" d="M317,283.3c0.8,4.3,3.1,10.4,5.3,12.5c2.8,2.6,18.5,10.9,11.9,15.3c-4.9,3.3-31-9.8-31.7-13.4
		c-0.5-2.6,0.9-10.6,1.7-14.7C308,285.3,312.9,284.9,317,283.3z"></path><path class="st6" d="M301.2,278.9c-0.8-13.9-2.7-39.2-3-40.5c-0.4-1.8-7.2-28.2-7.2-28.2c1.9-8.9,3.6-17.9,4.7-26.9
		c2.1-0.2-2.6-24.3-0.6-24.8c4.2-0.9,8.1-6.7,12.1-8.6c4,22.8,17,89.7,20,125.5C324.3,281.7,310.6,282.7,301.2,278.9z"></path><path class="st8" d="M261.8,254.7c-3.1,3.4-6.5,11.2-8.6,15.1c-0.5,0.8-1,1.7-1.4,2.7l-7.9-6.5l8-17.8L261.8,254.7z"></path><path class="st2" d="M246.5,259.3c2.2,3.3,5.9,5.3,9.4,4.7c-0.4,2.7-1.5,7.8-0.3,9.7c1.8,2.7,14.6,13.9,7.8,16.6
		c-5,2-22.8-13.6-22.5-16.8C241.1,271.2,244.9,262.8,246.5,259.3z"></path><path class="st6" d="M267.3,264.8c-0.2,0.2-0.5,0.3-0.7,0.2c-4.2-1.6-8.1-3.7-11.8-6.3c-3.6-2.9-5.3-6-8.3-9.8l1.5-2.6
		c7-14.1,20.7-61.2,21.4-64.4c0.8-3.8,4-38.2,4-38.2l31.4-5.7c0,0-1.1,30-3.6,56.6c-1.2,4.7-2.7,9.3-4.4,13.8
		C289.9,227,280.8,249.1,267.3,264.8L267.3,264.8z"></path><path class="st8" d="M272.5,187c0.2-2.8,0.6-5.6,1.1-8.3c0-3.2,0.2-6.4,0.7-9.5c3.4-0.1,6.9-0.1,10.3,0.2c0,1.7,0,3.4,0.1,5.1
		c0.4,1.2,0.7,2.5,1,3.8c0.2,0.2,0.4,0.4,0.5,0.7c1.4,3.3,2.8,6.6,3,10.3c0.1,1.8-2.7,2.5-3.4,0.9c-0.5-1.1-1-2.3-1.5-3.5
		c0,1.6,0,3.2-0.1,4.8c0,1-0.8,1.8-1.9,1.8c-0.9,0.1-1.8-0.4-2.2-1.3c-0.6,0.8-1.6,1.1-2.5,0.8c-0.7-0.4-1.3-1-1.6-1.8
		c-0.7,0.3-1.5,0.3-2.2,0C272.6,190.1,272.4,188.4,272.5,187z"></path><path class="st25" d="M297.3,102.7c-0.5-0.1-1.1-0.4-1.5-0.6c-0.3,0-0.6,0-0.9,0c-4.3,1.8-15.1,6.7-18.1,13.2
		c-3.7,8.1-9.8,31.5-5.1,59.6c1.1,0,2.1,0,3.2,0c1.8-0.1,3.5-0.2,5.3-0.5h0c2.5-0.4,4.9-0.8,7.3-1.4c-0.7-6.8-1.5-16.1-0.6-15.9
		s12.8-1.4,19.6-6.9c0.2-1.1,0.5-2.1,0.7-3.2c0.4-6.6,1-13.2,1.4-19.8c0.2-4.2,0.4-8.5,0.3-12.7C306.7,109,303.4,104.3,297.3,102.7z
		"></path><path class="st8" d="M298.7,107c-1,0.6-2.2,1-3.4,1c-3.8,0.2-6.1-3.8-7.5-6.8c-1.9-3.4-2.9-7.2-3.1-11.1c0-0.6,0.1-1.3,0.2-1.9
		c1.5-4.4,17.1-7.6,18,1C303.4,94.4,303.8,103.9,298.7,107z"></path><path class="st8" d="M286.5,94.9c1.1-0.1,2.2,0.3,2.9,1.1c0.9,0.8,1.4,1.8,1.6,3c0.1,0.5-0.1,0.9-0.5,1.2c-0.4,0.6-1.2,0.8-1.9,0.5
		c0,0,0,0-0.1,0c-1.1-0.7-2-1.5-2.8-2.6C285.1,97,285,95.2,286.5,94.9z"></path><path class="st2" d="M280.7,84.3c0.3-1.9,1.4-3.6,3-4.6c1.8-1.2,4-1.5,6-0.9c0.8-1.3,2-2.3,3.4-2.8c2.6-0.8,5.5,0,7.2,2.2
		c2.2-0.2,4.5,0.3,6.4,1.5c2,1.4,3.2,3.6,3.3,6.1c0,0.3,0,0.7,0,1.1c0.1,0.6,0.1,1.2-0.1,1.9c-0.8,4.3-4.5,5.3-6.8,5.5
		c0.4-2.3,0-6.8-2.7-5.6c-0.2,0-0.3,0-0.4,0.1c-1.7,0.8-0.3,3.1-2.7,3.4s-3.8-1.5-6,0.7s2.7,4.6-2.5,8.6c0,0.3-0.1,0.6-0.1,0.9
		c0.1-0.3-2-2.2-2.4-2.6c-0.8-1-1.6-2-2.4-3c-1.4-1.7-2.5-3.6-3.3-5.7C279.9,88.8,280.3,86.6,280.7,84.3z"></path><path class="st8" d="M287,97.9c-0.2-1.5,0.9-2.4,2.2-1.7c1.8,1.1,2.9,3,3,5.1c0.1,0.9-0.6,1.7-1.5,1.8c-0.5,0-0.9-0.1-1.3-0.4
		C288.1,101.4,287.3,99.7,287,97.9z"></path><path class="st2" d="M302.6,100.3c-0.3,0-0.6-0.1-0.8-0.2c-1.4-0.9-1.7-3.8-1.7-4.2v-0.3l0.3-0.1c0.3-0.1,3.3-1.1,5.1-1.8l0.5-0.2
		v0.5c0,0.2,0.1,4.9-2.5,6C303.2,100.2,302.9,100.3,302.6,100.3z M300.8,96.1c0.1,1,0.5,2.8,1.3,3.3c0.3,0.2,0.7,0.2,1,0
		c1.7-0.8,2-3.6,2-4.8C304.1,95,301.7,95.8,300.8,96.1z"></path><path class="st2" d="M295.3,102.8c-0.6,0-1.2-0.2-1.7-0.6c-1.4-1.2-1.5-3.6-1.5-3.7v-0.3l6-2.1l0.1,0.4c0,0.1,0.9,2.9-0.1,4.7
		c-0.4,0.7-1.2,1.3-2,1.4C295.9,102.7,295.6,102.8,295.3,102.8z M292.9,98.8c0,1.1,0.5,2.1,1.2,2.9c0.5,0.4,1.2,0.5,1.9,0.3
		c0.7-0.1,1.2-0.5,1.5-1.1c0.5-1.2,0.5-2.5,0.1-3.8L292.9,98.8z"></path><path class="st2" d="M290,96l2.6,2.3c0.3,0.3-0.2,0.7-0.5,0.5l-2.6-2.3C289.2,96.2,289.7,95.7,290,96z"></path><path class="st2" d="M299.9,102.3c0.4,0,1-0.2,1-0.7c-0.1-0.3-0.2-0.6-0.4-0.9c-0.2-0.6-0.5-1.1-0.8-1.7c-0.1-0.2,0-0.4,0.2-0.4
		c0.1-0.1,0.3,0,0.4,0.1c0.3,0.6,0.6,1.1,0.8,1.7c0.3,0.4,0.4,0.9,0.5,1.4c0,0.8-1.1,1.1-1.8,1.2C299.5,103,299.5,102.3,299.9,102.3
		z"></path><path class="st2" d="M297.8,96.3c1-0.2,1.9-0.5,2.9-0.8c0.4-0.1,0.6,0.5,0.2,0.7c-0.9,0.3-1.9,0.6-2.9,0.8
		C297.5,97.1,297.3,96.4,297.8,96.3z"></path><path class="st2" d="M293.5,217.1c0,0,5.2-18.5,8.2-27.9l-2.6,56.1C299.1,245.2,296.1,224.4,293.5,217.1z"></path><path class="st2" d="M279.9,108.5c0,0,10.1,4.7,4.4,35.5c0,0,9.1-15.7,8.6-25.1s-4.8-14.9-7-15.5S278.6,106.3,279.9,108.5z"></path><linearGradient id="SVGID_00000076582698265547404670000005941570452278642103_" gradientUnits="userSpaceOnUse" x1="316.4793" y1="209.5358" x2="289.2393" y2="172.3858" gradientTransform="matrix(1 0 0 -1 0 502)"><stop offset="4.000000e-02" style="stop-color: rgb(38, 38, 38);"></stop><stop offset="1" style="stop-color: rgb(246, 247, 242); stop-opacity: 0;"></stop></linearGradient><path d="
		M294,337.8l1.4,1.2c11.1-9.3,28.3-20,38.9-29.9c-7.3-8.9-20.5-16.3-23.9-18.8c-9.1,7.8-31.9,20.2-43.2,28.5c3.9,2.7,8.1,5,12,7.8
		C284.2,330.2,289,334.1,294,337.8z" style="opacity: 0.46; fill: url(&quot;#SVGID_00000076582698265547404670000005941570452278642103_&quot;);"></path><linearGradient id="SVGID_00000090988442572542823790000000607354590411085714_" gradientUnits="userSpaceOnUse" x1="250.8809" y1="227.3893" x2="229.9909" y2="198.9093" gradientTransform="matrix(1 0 0 -1 0 502)"><stop offset="4.000000e-02" style="stop-color: rgb(38, 38, 38);"></stop><stop offset="1" style="stop-color: rgb(246, 247, 242); stop-opacity: 0;"></stop></linearGradient><path d="
		M234.5,310.5l1.1,0.8c8.5-7.1,21.5-15.2,29.6-22.8c-5.5-6.8-19.4-16.4-21.9-18.3c-6.9,5.9-19.9,13.8-28.5,20.1
		c3,2.1,5.5,9.4,8.4,11.5C227.1,304.6,230.7,307.6,234.5,310.5z" style="opacity: 0.46; fill: url(&quot;#SVGID_00000090988442572542823790000000607354590411085714_&quot;);"></path></g><g id="lamp"><linearGradient id="SVGID_00000165913495202433366090000004183752928133779878_" gradientUnits="userSpaceOnUse" x1="73.6785" y1="184.4214" x2="59.1085" y2="168.8214" gradientTransform="matrix(1 0 0 -1 0 502)"><stop offset="4.000000e-02" style="stop-color: rgb(38, 38, 38);"></stop><stop offset="1" style="stop-color: rgb(246, 247, 242); stop-opacity: 0;"></stop></linearGradient><path d="
		M72.1,339.4c10.8-8.3,24.7-17.4,33.8-25.8c-7.3-8.9-20.6-16.3-23.9-18.8c-8.4,7.2-28.4,18.3-40.3,26.5
		C51.3,328.1,62.2,333.1,72.1,339.4z" style="opacity: 0.46; fill: url(&quot;#SVGID_00000165913495202433366090000004183752928133779878_&quot;);"></path><path class="st2" d="M77.8,313.7V95.4h5.3v218.2"></path><ellipse class="st2" cx="79.9" cy="234.1" rx="11.2" ry="5.2"></ellipse><circle class="st6" cx="80.4" cy="88.2" r="24"></circle><path class="st2" d="M68.7,234.1c0-0.1-12,79.5-12,79.5s5.2,7.7,23.3,8.8s26-8.9,26-11.2s-14.8-77.1-14.8-77.1"></path><path class="st10" d="M100.2,84.7C99,79.1,96,74,91.6,70.2c-2.9-2.4-7,1.7-4.2,4.2c3.6,3.1,6.1,7.2,7,11.9
		C95.3,90,101,88.4,100.2,84.7z"></path></g></svg>